<?xml version="1.0" encoding="UTF-8" standalone="no"?>
<!-- Created with Inkscape (http://www.inkscape.org/) -->
<svg
   xmlns:dc="http://purl.org/dc/elements/1.1/"
   xmlns:cc="http://creativecommons.org/ns#"
   xmlns:rdf="http://www.w3.org/1999/02/22-rdf-syntax-ns#"
   xmlns:svg="http://www.w3.org/2000/svg"
   xmlns="http://www.w3.org/2000/svg"
   xmlns:xlink="http://www.w3.org/1999/xlink"
   xmlns:sodipodi="http://sodipodi.sourceforge.net/DTD/sodipodi-0.dtd"
   xmlns:inkscape="http://www.inkscape.org/namespaces/inkscape"
   width="542"
   height="654"
   id="svg2"
   sodipodi:version="0.32"
   inkscape:version="0.46"
   version="1.0"
   sodipodi:docbase="gbrainy"
   sodipodi:docname="background.svg"
   inkscape:output_extension="org.inkscape.output.svg.inkscape">
  <defs
     id="defs4">
    <inkscape:perspective
       sodipodi:type="inkscape:persp3d"
       inkscape:vp_x="0 : 327 : 1"
       inkscape:vp_y="0 : 1000 : 0"
       inkscape:vp_z="542 : 327 : 1"
       inkscape:persp3d-origin="271 : 218 : 1"
       id="perspective148" />
    <linearGradient
       id="linearGradient1501">
      <stop
         id="stop1502"
         offset="0"
         style="stop-color:#ffffff;stop-opacity:0.54545456;" />
      <stop
         id="stop1504"
         offset="1.0000000"
         style="stop-color:#ffffff;stop-opacity:0.0000000;" />
    </linearGradient>
    <linearGradient
       id="linearGradient1499"
       x1="687.96375"
       x2="330.88034"
       xlink:href="#linearGradient1501"
       y1="236.12772"
       y2="418.53635"
       gradientTransform="matrix(0.860323,0,0,0.8889699,-182.90589,-18.077481)"
       gradientUnits="userSpaceOnUse" />
    <linearGradient
       id="linearGradient6576">
      <stop
         style="stop-color:#e3e3e3;stop-opacity:1;"
         offset="0"
         id="stop6578" />
      <stop
         id="stop32494"
         offset="0.5"
         style="stop-color:#eeeeee;stop-opacity:1;" />
      <stop
         style="stop-color:#cbcbcb;stop-opacity:1;"
         offset="1"
         id="stop6580" />
    </linearGradient>
    <linearGradient
       id="linearGradient4580">
      <stop
         style="stop-color:#7c99b3;stop-opacity:0;"
         offset="0"
         id="stop4582" />
      <stop
         id="stop6572"
         offset="1"
         style="stop-color:#d4d6d7;stop-opacity:0;" />
    </linearGradient>
    <linearGradient
       inkscape:collect="always"
       xlink:href="#linearGradient6576"
       id="linearGradient6582"
       x1="77.046127"
       y1="535.53741"
       x2="463.04611"
       y2="135.5374"
       gradientUnits="userSpaceOnUse" />
    <linearGradient
       inkscape:collect="always"
       xlink:href="#linearGradient6576"
       id="linearGradient2722"
       gradientUnits="userSpaceOnUse"
       x1="77.046127"
       y1="535.53741"
       x2="463.04611"
       y2="135.5374" />
    <linearGradient
       inkscape:collect="always"
       xlink:href="#linearGradient6576"
       id="linearGradient2734"
       gradientUnits="userSpaceOnUse"
       x1="77.046127"
       y1="535.53741"
       x2="463.04611"
       y2="135.5374" />
    <linearGradient
       inkscape:collect="always"
       xlink:href="#linearGradient6576"
       id="linearGradient20249"
       gradientUnits="userSpaceOnUse"
       gradientTransform="translate(445.39807,62.784894)"
       x1="-367.77307"
       y1="472.1521"
       x2="18.226931"
       y2="72.1521" />
    <filter
       inkscape:collect="always"
       id="filter25693">
      <feGaussianBlur
         inkscape:collect="always"
         stdDeviation="0.94017534"
         id="feGaussianBlur25695" />
    </filter>
  </defs>
  <sodipodi:namedview
     id="base"
     pagecolor="#ffffff"
     bordercolor="#666666"
     borderopacity="1.0"
     gridtolerance="10000"
     guidetolerance="10"
     objecttolerance="10"
     inkscape:pageopacity="0.0"
     inkscape:pageshadow="2"
     inkscape:zoom="1.2262997"
     inkscape:cx="272.63092"
     inkscape:cy="316.39901"
     inkscape:document-units="px"
     inkscape:current-layer="capa1"
     width="542px"
     height="654px"
     borderlayer="true"
     inkscape:window-width="1279"
     inkscape:window-height="724"
     inkscape:window-x="0"
     inkscape:window-y="53"
     showguides="true"
     inkscape:guide-bbox="true"
     showgrid="false"
     showborder="false" />
  <metadata
     id="metadata7">
    <rdf:RDF>
      <cc:Work
         rdf:about="">
        <dc:format>image/svg+xml</dc:format>
        <dc:type
           rdf:resource="http://purl.org/dc/dcmitype/StillImage" />
      </cc:Work>
    </rdf:RDF>
  </metadata>
  <g
     inkscape:label="Capa 1"
     inkscape:groupmode="layer"
     id="capa1">
    <rect
       style="opacity:0.47846889;fill:#000000;fill-opacity:1;fill-rule:nonzero;stroke:none;stroke-width:0.77045178;stroke-linecap:butt;stroke-linejoin:miter;marker:none;marker-start:none;marker-mid:none;marker-end:none;stroke-miterlimit:4;stroke-dasharray:none;stroke-dashoffset:0;stroke-opacity:1;visibility:visible;display:inline;overflow:visible;filter:url(#filter25693);enable-background:accumulate"
       id="rect15367"
       width="386"
       height="400"
       x="79.625"
       y="136.937"
       transform="matrix(0.9978874,0,0,0.9959227,0.9836767,2.1892568)" />
    <rect
       style="opacity:1;fill:url(#linearGradient20249);fill-opacity:1;fill-rule:nonzero;stroke:none;stroke-width:0.77045178;stroke-linecap:butt;stroke-linejoin:miter;marker:none;marker-start:none;marker-mid:none;marker-end:none;stroke-miterlimit:4;stroke-dasharray:none;stroke-dashoffset:0;stroke-opacity:1;visibility:visible;display:inline;overflow:visible;enable-background:accumulate"
       id="rect20247"
       width="386"
       height="400"
       x="77.625"
       y="134.937" />
    <g
       id="g17315"
       style="opacity:0.4;fill:#ffffff;fill-opacity:0.94117647">
      <path
         id="path2725"
         d="M 152.75,136.125 L 145.5625,137.71875 L 132,140.6875 L 119.28125,145.15625 L 107.3125,150.375 L 96.15625,155.59375 L 85.03125,161.5625 L 77.625,166.34375 L 77.625,347.78125 L 78.65625,347.875 L 85.8125,348.625 L 92.96875,348.625 L 99.34375,347.875 L 106.53125,346.375 L 112.90625,344.90625 L 112.09375,347.125 L 120.84375,335.9375 L 129.625,324.78125 L 134.40625,319.5625 L 139.96875,315.09375 L 146.34375,310.625 L 149.53125,308.375 L 153.5,306.875 L 157.5,305.40625 L 159.875,303.15625 L 163.0625,299.4375 L 165.46875,295.71875 L 166.25,291.96875 L 167.84375,289 L 168.65625,288.25 L 169.4375,286.75 L 171.03125,286.03125 L 172.625,285.28125 L 175.03125,284.53125 L 178.21875,283.78125 L 181.40625,283.78125 L 185.375,284.53125 L 188.5625,285.28125 L 191.75,285.28125 L 187.75,280.0625 L 183.78125,274.84375 L 180.59375,269.625 L 179.8125,267.375 L 179,264.40625 L 177.40625,259.1875 L 177.40625,253.96875 L 177.40625,251.75 L 177.40625,249.5 L 179,244.28125 L 180.59375,240.5625 L 182.1875,237.5625 L 184.59375,235.34375 L 186.96875,232.375 L 190.15625,229.375 L 192.53125,228.625 L 194.125,227.15625 L 201.3125,222.6875 L 206.875,218.9375 L 211.65625,214.46875 L 216.4375,210 L 218.03125,208.5 L 220.40625,205.53125 L 222,203.28125 L 223.59375,201.0625 L 227.59375,195.09375 L 231.5625,188.375 L 233.15625,182.4375 L 234.75,177.21875 L 235.5625,172 L 234.75,169 L 234.75,166.78125 L 233.96875,163.78125 L 232.375,160.8125 L 230.78125,158.59375 L 229.1875,157.09375 L 226,153.375 L 221.21875,150.375 L 216.4375,147.40625 L 206.09375,142.9375 L 194.9375,137.71875 L 190.15625,136.21875 L 189.96875,136.125 L 152.75,136.125 z"
         style="opacity:0.5;fill:#ffffff;fill-opacity:0.94117647;fill-rule:nonzero;stroke:none;stroke-width:1.17821872;stroke-opacity:1" />
      <path
         id="rect10258"
         d="M 196.28125,136.125 L 208.46875,140.6875 L 218.03125,145.15625 L 226.78125,149.625 L 230.78125,151.875 L 232.375,153.375 L 233.96875,154.84375 L 237.15625,157.84375 L 237.9375,159.3125 L 239.53125,160.8125 L 241.125,163.78125 L 241.9375,166.03125 L 242.71875,169.75 L 242.71875,172.75 L 242.71875,176.46875 L 241.9375,180.1875 L 240.34375,183.90625 L 237.9375,188.375 L 235.5625,192.875 L 233.15625,197.34375 L 230.78125,201.8125 L 227.59375,206.28125 L 221.21875,213.71875 L 218.03125,216.71875 L 214.0625,218.9375 L 203.6875,225.65625 L 198.90625,229.375 L 196.53125,230.875 L 194.125,233.09375 L 190.9375,235.34375 L 189.34375,238.3125 L 186.96875,241.3125 L 186.15625,244.28125 L 185.375,248.75 L 184.59375,253.96875 L 185.375,259.1875 L 186.15625,263.65625 L 187.75,268.125 L 189.34375,272.59375 L 191.75,277.0625 L 195.71875,281.5625 L 199.71875,285.28125 L 202.90625,285.28125 L 206.09375,285.28125 L 209.28125,284.53125 L 212.46875,283.78125 L 215.65625,279.3125 L 218.03125,277.0625 L 219.625,274.84375 L 222,273.34375 L 224.40625,271.84375 L 226.78125,270.375 L 229.1875,269.625 L 235.5625,267.375 L 241.9375,265.90625 L 249.90625,265.15625 L 259.4375,264.40625 L 263.4375,263.65625 L 266.625,262.90625 L 269,261.4375 L 271.40625,260.6875 L 273,259.1875 L 274.59375,257.6875 L 276.1875,253.96875 L 279.375,248 L 280.96875,245.78125 L 281.75,245.03125 L 283.34375,245.03125 L 284.15625,245.03125 L 286.53125,245.78125 L 290.5,248 L 294.5,251 L 300.875,255.46875 L 300.875,252.46875 L 301.65625,250.25 L 301.65625,247.25 L 303.25,245.03125 L 304.84375,242.78125 L 306.4375,240.5625 L 308.03125,239.0625 L 310.4375,237.5625 L 312.8125,236.09375 L 315.21875,235.34375 L 317.59375,234.59375 L 320.78125,234.59375 L 323.96875,235.34375 L 326.34375,236.09375 L 329.53125,237.5625 L 332.71875,239.8125 L 335.125,241.3125 L 337.5,242.78125 L 339.90625,244.28125 L 342.28125,245.03125 L 345.46875,245.03125 L 347.0625,245.03125 L 348.65625,245.03125 L 351.84375,243.53125 L 354.21875,242.0625 L 359.8125,237.5625 L 362.1875,235.34375 L 364.59375,233.09375 L 366.96875,231.625 L 370.15625,230.875 L 371.75,230.875 L 373.34375,231.625 L 374.9375,232.375 L 377.34375,233.09375 L 381.3125,236.09375 L 386.09375,240.5625 L 390.0625,244.28125 L 394.0625,246.53125 L 398.03125,248.75 L 402.03125,250.25 L 405.21875,250.25 L 409.1875,250.25 L 412.375,250.25 L 415.5625,249.5 L 418.75,248 L 421.9375,246.53125 L 424.3125,244.28125 L 425.90625,242.78125 L 427.5,240.5625 L 429.09375,238.3125 L 429.09375,236.84375 L 429.90625,234.59375 L 427.5,230.125 L 425.90625,225.65625 L 422.71875,221.1875 L 421.9375,218.9375 L 420.34375,216.71875 L 416.34375,211.5 L 412.375,207.03125 L 408.40625,202.5625 L 403.625,198.09375 L 393.25,189.125 L 382.125,180.1875 L 375.75,176.46875 L 369.375,172 L 363,168.28125 L 355.8125,164.53125 L 348.65625,160.8125 L 341.5,157.09375 L 333.53125,154.09375 L 326.34375,150.375 L 310.4375,144.40625 L 302.46875,142.1875 L 294.5,139.1875 L 285.71875,136.96875 L 281.25,136.125 L 196.28125,136.125 z"
         style="opacity:0.5;fill:#ffffff;fill-opacity:0.94117647;fill-rule:nonzero;stroke:none;stroke-width:1.17821872;stroke-opacity:1" />
      <path
         id="path7924"
         d="M 452.20156,307.63141 L 452.20156,320.30081 L 452.99806,327.7534 L 452.99806,334.46073 L 452.20156,340.4228 L 451.40506,344.89435 L 450.60857,347.13013 L 449.81207,348.62065 L 448.21908,349.36591 L 446.62609,349.36591 L 443.4401,349.36591 L 437.06813,348.62065 L 415.56273,347.87539 L 402.81878,347.13013 L 388.48185,347.13013 L 374.94141,347.87539 L 368.56944,347.87539 L 362.99396,348.62065 L 364.58696,342.65858 L 366.17995,337.44177 L 367.77294,331.4797 L 367.77294,325.51763 L 367.77294,319.55555 L 366.97645,313.59348 L 365.38345,307.63141 L 362.99396,302.4146 L 360.60447,297.19779 L 358.21499,291.98098 L 355.029,287.50943 L 350.25002,283.78313 L 347.06404,280.8021 L 343.87805,277.82106 L 340.69206,275.58529 L 337.50608,274.09477 L 329.54111,271.11373 L 322.37265,268.87796 L 317.59367,265.89692 L 312.81469,262.91589 L 308.83221,259.93485 L 304.84973,256.95382 L 304.84973,254.71804 L 304.84973,251.737 L 305.64622,249.50123 L 306.44272,247.26545 L 307.23922,245.02967 L 308.83221,243.53916 L 311.2217,242.04864 L 312.81469,240.55812 L 315.20418,239.81286 L 317.59367,239.0676 L 322.37265,239.0676 L 325.55863,239.81286 L 327.94812,241.30338 L 331.13411,242.7939 L 334.32009,244.28442 L 339.09907,248.01071 L 341.48856,248.75597 L 343.87805,249.50123 L 347.06404,250.24649 L 351.04652,249.50123 L 353.43601,248.75597 L 356.62199,246.52019 L 359.01148,244.28442 L 361.40097,242.04864 L 366.17995,238.32235 L 368.56944,236.83183 L 370.16243,236.08657 L 371.75542,236.08657 L 373.34842,236.08657 L 374.94141,236.08657 L 378.12739,237.57709 L 380.51688,239.0676 L 382.90637,240.55812 L 387.68535,245.02967 L 391.66783,248.75597 L 394.85382,251.737 L 398.8363,253.97278 L 402.02229,255.4633 L 405.20827,256.20856 L 408.39426,256.20856 L 411.58024,256.20856 L 413.96973,255.4633 L 417.15572,254.71804 L 419.54521,253.22752 L 421.9347,251.737 L 424.32419,249.50123 L 428.30667,245.77493 L 432.28915,242.04864 L 433.88214,241.30338 L 436.27163,242.04864 L 437.06813,242.7939 L 437.86462,243.53916 L 438.66112,245.02967 L 439.45762,246.52019 L 441.05061,249.50123 L 442.6436,253.97278 L 445.03309,263.66114 L 447.42258,274.84003 L 449.81207,286.76417 L 451.40506,297.94305 L 452.20156,307.63141 z"
         style="opacity:0.5;fill:#ffffff;fill-opacity:0.94117647" />
      <path
         id="path7926"
         d="M 360.60447,353.0922 L 385.29586,350.85642 L 407.59776,350.11117 L 417.15572,350.85642 L 424.32419,350.85642 L 429.89966,351.60168 L 431.49265,351.60168 L 432.28915,352.34694 L 433.88214,353.0922 L 434.67864,353.83746 L 435.47514,355.32798 L 435.47514,356.07324 L 434.67864,358.30901 L 433.88214,360.54479 L 429.10316,365.01634 L 427.51017,367.99738 L 425.91718,370.23315 L 428.30667,378.431 L 429.10316,382.90255 L 429.10316,387.37411 L 429.10316,393.33618 L 428.30667,397.06247 L 428.30667,400.04351 L 426.71368,406.00558 L 425.12068,408.98661 L 424.32419,411.96765 L 421.1382,417.18446 L 419.54521,420.16549 L 417.15572,422.40127 L 415.56273,424.63705 L 413.17324,427.61808 L 408.39426,432.08963 L 403.61528,435.81593 L 398.03981,439.54222 L 391.66783,442.52326 L 385.29586,445.50429 L 378.12739,447.74007 L 370.95893,449.23059 L 363.79046,450.7211 L 355.8255,450.7211 L 338.30257,451.46636 L 331.9306,450.7211 L 325.55863,449.97584 L 319.18666,448.48533 L 312.81469,446.99481 L 307.23922,444.75903 L 302.46024,442.52326 L 296.88476,439.54222 L 292.10578,436.56119 L 288.1233,433.58015 L 284.14082,429.85386 L 280.95483,426.12756 L 278.56534,422.40127 L 276.17586,418.67498 L 274.58286,414.20342 L 272.98987,409.73187 L 272.98987,405.26032 L 272.98987,402.27928 L 272.98987,400.04351 L 278.56534,397.06247 L 283.34432,395.57195 L 294.49527,391.84566 L 306.44272,388.86462 L 312.01819,386.62885 L 316.79717,385.13833 L 325.55863,381.41204 L 330.33761,379.92152 L 333.5236,377.68574 L 335.91309,376.19522 L 339.09907,374.70471 L 343.87805,371.72367 L 347.86053,367.99738 L 351.84301,364.27108 L 358.21499,356.81849 L 360.60447,353.0922 z"
         style="opacity:0.5;fill:#ffffff;fill-opacity:0.94117647" />
      <path
         id="path7932"
         d="M 173.42782,290.49046 L 176.61381,289.7452 L 180.59629,289.7452 L 185.37527,289.7452 L 192.54373,290.49046 L 195.72972,291.23572 L 199.7122,290.49046 L 202.10169,289.7452 L 205.28768,288.99994 L 210.86315,286.76417 L 215.64213,284.52839 L 225.20009,277.82106 L 230.77556,275.58529 L 233.96155,274.09477 L 237.14753,272.60425 L 244.316,271.11373 L 248.29848,270.36847 L 253.07746,269.62322 L 259.44943,268.87796 L 265.02491,267.38744 L 269.80388,265.15166 L 273.78637,262.91589 L 276.97235,259.93485 L 280.15834,256.95382 L 285.73381,250.24649 L 288.9198,252.48226 L 292.10578,253.97278 L 299.27425,259.18959 L 303.25673,262.17063 L 306.44272,265.15166 L 309.6287,267.38744 L 314.40768,268.87796 L 319.98316,271.11373 L 326.35513,274.09477 L 332.7271,277.0758 L 337.50608,280.05684 L 342.28506,283.78313 L 346.26754,288.99994 L 349.45352,293.4715 L 352.63951,297.94305 L 355.029,302.4146 L 356.62199,308.37667 L 357.41849,313.59348 L 358.21499,319.55555 L 358.21499,325.51763 L 357.41849,331.4797 L 356.62199,337.44177 L 355.029,343.40384 L 353.43601,349.36591 L 351.84301,352.34694 L 351.04652,355.32798 L 347.06404,360.54479 L 345.47104,363.52582 L 343.08155,365.7616 L 338.30257,370.23315 L 333.5236,373.95945 L 329.54111,376.19522 L 325.55863,377.68574 L 316.79717,382.15729 L 305.64622,385.88359 L 294.49527,389.60988 L 274.58286,396.31721 L 263.43191,399.29825 L 250.68797,402.27928 L 238.74052,405.26032 L 225.99658,406.75083 L 214.04914,408.24135 L 202.89819,408.24135 L 191.74724,408.24135 L 186.17176,408.24135 L 180.59629,407.49609 L 170.24183,406.00558 L 160.68388,403.7698 L 155.9049,402.27928 L 151.12592,400.78876 L 147.14344,399.29825 L 143.16096,397.80773 L 135.19599,394.08143 L 128.82402,389.60988 L 123.24855,384.39307 L 118.46957,378.431 L 116.87658,375.44996 L 115.28358,372.46893 L 113.69059,367.99738 L 112.89409,362.78057 L 112.0976,358.30901 L 112.0976,353.0922 L 120.85906,341.91332 L 125.63804,335.95125 L 129.62052,330.73444 L 134.3995,325.51763 L 139.97497,320.30081 L 143.16096,318.06504 L 146.34694,316.57452 L 150.32942,314.33874 L 153.51541,312.10297 L 157.49789,310.61245 L 159.88738,308.37667 L 162.27687,306.88616 L 163.86986,304.65038 L 165.46286,300.92408 L 168.64884,294.96201 L 171.03833,292.72624 L 171.83483,291.23572 L 173.42782,290.49046 z"
         style="opacity:0.50717708;fill:#ffffff;fill-opacity:0.94117647" />
      <path
         id="path7934"
         d="M 264.22841,408.24135 L 279.36184,440.28748 L 282.54783,441.03274 L 291.30929,444.01377 L 296.08827,446.24955 L 300.86724,449.23059 L 304.05323,452.21162 L 305.64622,453.70214 L 307.23922,455.19266 L 313.61119,469.35257 L 320.77965,481.27671 L 327.94812,494.69137 L 285.73381,508.85129 L 270.60038,471.58835 L 246.70549,455.19266 L 225.20009,415.69394 L 264.22841,408.24135 z"
         style="opacity:0.5;fill:#ffffff;fill-opacity:0.94117647" />
    </g>
  </g>
</svg>
