<?xml version="1.0" encoding="utf-8"?>
<!-- Generator: Adobe Illustrator 13.0.1, SVG Export Plug-In . SVG Version: 6.00 Build 14948)  -->
<!DOCTYPE svg PUBLIC "-//W3C//DTD SVG 1.1//EN" "http://www.w3.org/Graphics/SVG/1.1/DTD/svg11.dtd">
<svg version="1.1" id="cervell" xmlns="http://www.w3.org/2000/svg" xmlns:xlink="http://www.w3.org/1999/xlink" x="0px" y="0px"
	 width="273.18px" height="194.733px" viewBox="0 0 273.18 194.733" enable-background="new 0 0 273.18 194.733"
	 xml:space="preserve">
<symbol  id="Bush_Left" viewBox="-43.3 -24.308 86.601 48.615">
	<g>
		<g>
			<path fill="#009036" d="M-33.888-3.511c8.299,8.895,13.237,21.557,13.237,21.557c-3.489-10.506-7.56-15.73-14.272-24.22
				L-33.888-3.511z"/>
			<path fill="#009036" d="M-30.487,3.161c0.297,2.265,2.376,11.441,2.376,11.441l-2.153-5.593
				c-0.479-2.881,0.761-5.555,0.447-7.952L-30.487,3.161z"/>
			<path fill="#009036" d="M-27.667,8.564c0.297,2.266,1.726,9.829,1.726,9.829l-0.53-3.791c0-2.44-0.211-5.744-0.526-8.142
				L-27.667,8.564z"/>
			<path fill="#009036" d="M-24.188,13.377c0.216,1.381,3.051,6.613,3.051,6.613l-2.181-2.933c0-1.487-0.154-3.501-0.382-4.963
				L-24.188,13.377z"/>
			<path fill="#009036" d="M-21.167,18.075c0.602,1.176,2.76,6.232,2.76,6.232l-1.281-3.51c-0.313-1.289-0.958-3.02-1.595-4.265
				L-21.167,18.075z"/>
			<path fill="#009036" d="M-26.043,10.332c0.297,2.266,1.726,9.828,1.726,9.828l-1.161-4.837c0-2.441,0.42-4.697,0.105-7.095
				L-26.043,10.332z"/>
			<path fill="#009036" d="M-24.522,3.487c1.421,0.866,6.495,3.396,6.495,3.396l-3.35-2.195c-1.774-1.165-5.323-0.627-6.827-1.544
				L-24.522,3.487z"/>
			<path fill="#009036" d="M-21.855,6.884c1.898,1.261,6.128,5.077,6.128,5.077l-3.163-2.14c-2.187-1.069-5.052-2.709-7.062-4.043
				L-21.855,6.884z"/>
			<path fill="#009036" d="M-21.837,13.088c1.036,0.934,3.865,6.169,3.865,6.169l-1.263-3.432c-1.244-0.811-2.842-2.037-3.939-3.025
				L-21.837,13.088z"/>
			<path fill="#009036" d="M-23.271,9.473c1.577,1.009,5.962,5.851,5.962,5.851l-2.632-3.877c-1.816-0.857-3.47-1.16-5.14-2.229
				L-23.271,9.473z"/>
			<path fill="#009036" d="M-32.966,0.366c0.297,2.265,1.6,12.736,1.6,12.736l-1.376-6.888c-0.479-2.881,0.762-5.555,0.447-7.952
				L-32.966,0.366z"/>
			<path fill="#009036" d="M-34.966-1.264c0.297,2.266,1.599,12.736,1.599,12.736l-1.376-6.887
				c-0.479-2.882,0.761-5.556,0.447-7.953L-34.966-1.264z"/>
			<path fill="#009036" d="M-29.402-0.557c1.549,0.605,10.179,4.284,10.179,4.284l-4.82-3.121c-1.949-0.838-5.362-0.453-7.002-1.095
				L-29.402-0.557z"/>
			<path fill="#009036" d="M-29.97-3.318c1.727,0.743,9.727,4.106,9.727,4.106l-5.13-2.746c-2.171-1.049-4.612-0.291-6.44-1.078
				L-29.97-3.318z"/>
		</g>
		<g>
			<path fill="#009036" d="M-41.108-9.821c17.332-2.827,35.766-10.603,35.766-10.603C-18.811-13.763-28.099-11.68-43.3-8.345
				L-41.108-9.821z"/>
			<path fill="#009036" d="M-29.852-13.562c2.399-1.676,13.091-8.003,13.091-8.003l-7.499,3.39
				c-3.164,2.079-4.231,4.895-6.771,6.668L-29.852-13.562z"/>
			<path fill="#009036" d="M-21.787-16.448c2.399-1.676,10.895-7.041,10.895-7.041l-4.051,2.787
				c-2.23,1.975-5.483,4.535-8.022,6.309L-21.787-16.448z"/>
			<path fill="#009036" d="M-13.531-18.509c1.501-1.004,9.426-3.744,9.426-3.744l-5.098,1.225c-1.36,1.204-3.371,2.751-4.96,3.813
				L-13.531-18.509z"/>
			<path fill="#009036" d="M-5.888-20.719c1.742-0.635,8.756-3.589,8.756-3.589l-4.628,2.165c-1.525,0.878-3.821,1.938-5.666,2.609
				L-5.888-20.719z"/>
			<path fill="#009036" d="M-18.371-17.022c2.399-1.676,10.895-7.041,10.895-7.041l-5.708,3.301
				c-2.23,1.975-3.826,4.021-6.366,5.795L-18.371-17.022z"/>
			<path fill="#009036" d="M-22.937-10.686c2.367,0.047,10.307,0.671,10.307,0.671l-5.722,0.014
				c-3.032,0.008-6.476-2.295-8.982-2.345L-22.937-10.686z"/>
			<path fill="#009036" d="M-16.876-12.029c3.258-0.021,11.436-0.882,11.436-0.882l-5.462,0.066
				c-3.403-0.285-8.078-0.468-11.526-0.445L-16.876-12.029z"/>
			<path fill="#009036" d="M-11.188-17.037c2.003-0.21,9.925-2.956,9.925-2.956L-5.8-17.882c-2.12,0.001-5.014,0.151-7.134,0.374
				L-11.188-17.037z"/>
			<path fill="#009036" d="M-16.082-14.868c2.671,0.014,11.958-1.595,11.958-1.595l-6.461,1.751
				c-2.797-0.263-4.908-0.889-7.736-0.902L-16.082-14.868z"/>
			<path fill="#009036" d="M-35.155-12.604c2.399-1.677,13.411-9.46,13.411-9.46l-7.819,4.846c-3.163,2.079-4.231,4.895-6.771,6.668
				L-35.155-12.604z"/>
			<path fill="#009036" d="M-38.862-12.34c2.399-1.676,13.412-9.46,13.412-9.46l-7.819,4.847c-3.164,2.079-4.231,4.894-6.771,6.668
				L-38.862-12.34z"/>
			<path fill="#009036" d="M-32.045-9.983c2.271,0.326,15.205,1.893,15.205,1.893l-8.198-0.013c-2.927-0.348-6.361-2.455-8.766-2.8
				L-32.045-9.983z"/>
			<path fill="#009036" d="M-35.199-8.048C-32.604-7.74-20.658-6.25-20.658-6.25l-8.2-0.479c-3.366-0.294-5.381-2.191-8.127-2.518
				L-35.199-8.048z"/>
		</g>
		<g>
			<path fill="#009036" d="M-20.024-4.793c13.512-1.991,27.731-7.055,27.731-7.055c-10.5,4.69-17.742,6.158-29.593,8.506
				L-20.024-4.793z"/>
			<path fill="#009036" d="M-11.401-7.015c1.871-1.181,10.206-5.637,10.206-5.637l-5.846,2.388C-9.508-8.8-10.341-6.817-12.32-5.568
				L-11.401-7.015z"/>
			<path fill="#009036" d="M-5.113-9.048c1.87-1.18,8.494-4.958,8.494-4.958l-3.158,1.963c-1.739,1.39-4.275,3.192-6.255,4.442
				L-5.113-9.048z"/>
			<path fill="#009036" d="M1.323-10.499c1.17-0.707,7.349-2.637,7.349-2.637l-3.975,0.862c-1.06,0.848-2.627,1.938-3.867,2.686
				L1.323-10.499z"/>
			<path fill="#009036" d="M7.281-12.056c1.358-0.447,6.827-2.527,6.827-2.527L10.5-13.059c-1.189,0.618-2.979,1.365-4.417,1.838
				L7.281-12.056z"/>
			<path fill="#009036" d="M-2.451-9.452c1.871-1.181,8.494-4.959,8.494-4.959l-4.45,2.325c-1.739,1.391-2.982,2.831-4.962,4.08
				L-2.451-9.452z"/>
			<path fill="#009036" d="M-6.011-4.99c1.846,0.033,8.036,0.473,8.036,0.473l-4.46,0.01c-2.364,0.006-5.049-1.616-7.002-1.651
				L-6.011-4.99z"/>
			<path fill="#009036" d="M-1.285-5.937c2.54-0.015,8.916-0.62,8.916-0.62L3.372-6.511c-2.653-0.2-6.298-0.329-8.986-0.313
				L-1.285-5.937z"/>
			<path fill="#009036" d="M3.15-9.463c1.562-0.148,7.737-2.082,7.737-2.082L7.35-10.058c-1.653,0.001-3.909,0.106-5.562,0.263
				L3.15-9.463z"/>
			<path fill="#009036" d="M-0.666-7.936c2.083,0.01,9.323-1.123,9.323-1.123L3.62-7.825C1.439-8.011-0.207-8.451-2.411-8.461
				L-0.666-7.936z"/>
			<path fill="#009036" d="M-15.536-6.342c1.871-1.18,10.456-6.661,10.456-6.661l-6.096,3.412c-2.466,1.464-3.299,3.446-5.278,4.696
				L-15.536-6.342z"/>
			<path fill="#009036" d="M-18.426-6.154c1.87-1.181,10.456-6.662,10.456-6.662l-6.096,3.413c-2.466,1.464-3.299,3.446-5.279,4.695
				L-18.426-6.154z"/>
			<path fill="#009036" d="M-13.112-4.495c1.771,0.229,11.854,1.332,11.854,1.332l-6.392-0.009
				c-2.282-0.245-4.959-1.729-6.834-1.972L-13.112-4.495z"/>
			<path fill="#009036" d="M-15.57-3.133c2.022,0.217,11.336,1.267,11.336,1.267l-6.393-0.338c-2.625-0.207-4.195-1.543-6.336-1.772
				L-15.57-3.133z"/>
		</g>
		<g>
			<path fill="#009036" d="M1.652-2.056c12.235-1.712,25.111-6.067,25.111-6.067C17.255-4.089,10.698-2.826-0.033-0.807L1.652-2.056
				z"/>
			<path fill="#009036" d="M9.46-3.967c1.694-1.015,9.241-4.848,9.241-4.848l-5.293,2.054c-2.233,1.259-2.987,2.964-4.78,4.039
				L9.46-3.967z"/>
			<path fill="#009036" d="M15.154-5.715c1.694-1.016,7.691-4.266,7.691-4.266l-2.859,1.688c-1.575,1.196-3.871,2.747-5.664,3.821
				L15.154-5.715z"/>
			<path fill="#009036" d="M20.982-6.964c1.06-0.607,6.654-2.268,6.654-2.268L24.038-8.49c-0.96,0.729-2.379,1.667-3.501,2.311
				L20.982-6.964z"/>
			<path fill="#009036" d="M26.378-8.303c1.23-0.385,6.182-2.174,6.182-2.174l-3.268,1.312c-1.076,0.532-2.697,1.174-4,1.581
				L26.378-8.303z"/>
			<path fill="#009036" d="M17.565-6.063c1.694-1.015,7.691-4.266,7.691-4.266l-4.029,2c-1.575,1.196-2.701,2.436-4.494,3.511
				L17.565-6.063z"/>
			<path fill="#009036" d="M14.342-2.225c1.671,0.028,7.276,0.406,7.276,0.406L17.579-1.81C15.438-1.805,13.007-3.2,11.238-3.23
				L14.342-2.225z"/>
			<path fill="#009036" d="M18.621-3.038c2.3-0.013,8.073-0.534,8.073-0.534l-3.856,0.04c-2.402-0.173-5.703-0.283-8.137-0.271
				L18.621-3.038z"/>
			<path fill="#009036" d="M22.637-6.072c1.414-0.127,7.006-1.791,7.006-1.791l-3.204,1.279c-1.496,0.001-3.539,0.092-5.036,0.227
				L22.637-6.072z"/>
			<path fill="#009036" d="M19.182-4.758c1.886,0.008,8.442-0.966,8.442-0.966l-4.562,1.061c-1.975-0.159-3.465-0.539-5.461-0.547
				L19.182-4.758z"/>
			<path fill="#009036" d="M5.717-3.387c1.694-1.016,9.468-5.731,9.468-5.731l-5.52,2.937c-2.233,1.259-2.987,2.964-4.78,4.039
				L5.717-3.387z"/>
			<path fill="#009036" d="M3.1-3.227c1.694-1.015,9.468-5.73,9.468-5.73l-5.52,2.936c-2.233,1.26-2.987,2.965-4.78,4.04L3.1-3.227z
				"/>
			<path fill="#009036" d="M7.912-1.799c1.604,0.197,10.733,1.146,10.733,1.146L12.858-0.66c-2.066-0.211-4.49-1.487-6.188-1.696
				L7.912-1.799z"/>
			<path fill="#009036" d="M5.686-0.627C7.518-0.44,15.951,0.462,15.951,0.462l-5.789-0.29C7.786-0.006,6.364-1.155,4.425-1.353
				L5.686-0.627z"/>
		</g>
		<g>
			<path fill="#009036" d="M14.001,2.836c11.079-1.473,22.738-5.22,22.738-5.22C28.13,1.087,22.192,2.173,12.475,3.91L14.001,2.836z
				"/>
			<path fill="#009036" d="M21.072,1.192c1.534-0.873,8.368-4.171,8.368-4.171l-4.793,1.767c-2.022,1.083-2.705,2.551-4.328,3.475
				L21.072,1.192z"/>
			<path fill="#009036" d="M26.228-0.312c1.534-0.874,6.964-3.67,6.964-3.67l-2.589,1.453c-1.426,1.028-3.505,2.362-5.128,3.287
				L26.228-0.312z"/>
			<path fill="#009036" d="M31.505-1.386c0.96-0.523,6.026-1.951,6.026-1.951l-3.259,0.638c-0.869,0.628-2.154,1.434-3.17,1.987
				L31.505-1.386z"/>
			<path fill="#009036" d="M36.391-2.538c1.114-0.331,5.598-1.87,5.598-1.87l-2.959,1.129c-0.975,0.457-2.442,1.009-3.622,1.359
				L36.391-2.538z"/>
			<path fill="#009036" d="M28.411-0.611c1.534-0.873,6.964-3.669,6.964-3.669l-3.649,1.72c-1.426,1.029-2.446,2.095-4.069,3.02
				L28.411-0.611z"/>
			<path fill="#009036" d="M25.492,2.69c1.513,0.024,6.589,0.35,6.589,0.35l-3.658,0.007c-1.938,0.005-4.14-1.195-5.742-1.222
				L25.492,2.69z"/>
			<path fill="#009036" d="M29.367,1.99c2.083-0.011,7.31-0.459,7.31-0.459l-3.492,0.034c-2.175-0.148-5.164-0.243-7.368-0.232
				L29.367,1.99z"/>
			<path fill="#009036" d="M33.003-0.619c1.28-0.109,6.344-1.54,6.344-1.54l-2.9,1.1c-1.355,0.001-3.205,0.079-4.56,0.195
				L33.003-0.619z"/>
			<path fill="#009036" d="M29.875,0.511c1.708,0.008,7.645-0.83,7.645-0.83l-4.13,0.912c-1.788-0.137-3.138-0.463-4.945-0.471
				L29.875,0.511z"/>
			<path fill="#009036" d="M17.682,1.69c1.534-0.873,8.573-4.93,8.573-4.93l-4.998,2.525c-2.022,1.084-2.705,2.551-4.328,3.475
				L17.682,1.69z"/>
			<path fill="#009036" d="M15.313,1.829c1.533-0.873,8.573-4.93,8.573-4.93l-4.999,2.525c-2.022,1.083-2.705,2.55-4.328,3.475
				L15.313,1.829z"/>
			<path fill="#009036" d="M19.669,3.057c1.452,0.17,9.72,0.986,9.72,0.986l-5.241-0.007c-1.871-0.181-4.066-1.279-5.604-1.459
				L19.669,3.057z"/>
			<path fill="#009036" d="M17.654,4.065c1.658,0.16,9.295,0.937,9.295,0.937l-5.242-0.249C19.556,4.6,18.268,3.61,16.512,3.44
				L17.654,4.065z"/>
		</g>
		<g>
			<path fill="#009036" d="M-16.823,0.146C-9.209,6.411-2.933,16.13-2.933,16.13C-7.012,7.951-10.858,4.172-17.184-1.957
				L-16.823,0.146z"/>
			<path fill="#009036" d="M-12.52,5.146c0.525,1.819,3.334,9.083,3.334,9.083l-2.402-4.317c-0.747-2.303-0.128-4.646-0.684-6.572
				L-12.52,5.146z"/>
			<path fill="#009036" d="M-9.624,9.226c0.525,1.82,2.619,7.842,2.619,7.842l-0.904-3.041c-0.317-2.001-0.91-4.681-1.466-6.607
				L-9.624,9.226z"/>
			<path fill="#009036" d="M-6.292,12.74c0.347,1.105,3.232,5.044,3.232,5.044l-2.078-2.135c-0.193-1.22-0.574-2.851-0.942-4.021
				L-6.292,12.74z"/>
			<path fill="#009036" d="M-3.331,16.218c0.621,0.89,2.957,4.768,2.957,4.768l-1.453-2.719c-0.411-1.018-1.138-2.355-1.795-3.298
				L-3.331,16.218z"/>
			<path fill="#009036" d="M-8.131,10.474c0.525,1.819,2.619,7.841,2.619,7.841l-1.532-3.82c-0.317-2-0.283-3.9-0.839-5.827
				L-8.131,10.474z"/>
			<path fill="#009036" d="M-7.835,4.678C-6.617,5.212-2.339,6.66-2.339,6.66l-2.892-1.387c-1.532-0.735-4.224,0.143-5.514-0.423
				L-7.835,4.678z"/>
			<path fill="#009036" d="M-5.318,7.132c1.641,0.8,5.428,3.405,5.428,3.405l-2.739-1.363C-4.47,8.566-6.913,7.576-8.65,6.73
				L-5.318,7.132z"/>
			<path fill="#009036" d="M-4.499,12.213c0.928,0.638,3.809,4.58,3.809,4.58l-1.429-2.657c-1.073-0.511-2.477-1.318-3.458-1.994
				L-4.499,12.213z"/>
			<path fill="#009036" d="M-6.085,9.428c1.358,0.633,5.4,4.06,5.4,4.06l-2.551-2.853c-1.524-0.479-2.852-0.522-4.29-1.192
				L-6.085,9.428z"/>
			<path fill="#009036" d="M-14.812,3.16c0.525,1.82,2.898,10.24,2.898,10.24l-1.965-5.475c-0.746-2.302-0.128-4.646-0.684-6.572
				L-14.812,3.16z"/>
			<path fill="#009036" d="M-16.581,2.071c0.525,1.82,2.898,10.24,2.898,10.24l-1.965-5.475c-0.747-2.302-0.128-4.646-0.685-6.572
				L-16.581,2.071z"/>
			<path fill="#009036" d="M-12.158,1.965c1.284,0.306,8.479,2.256,8.479,2.256l-4.157-1.964c-1.625-0.445-4.232,0.29-5.592-0.033
				L-12.158,1.965z"/>
			<path fill="#009036" d="M-12.959-0.229c1.441,0.396,8.104,2.166,8.104,2.166l-4.35-1.617c-1.826-0.593-3.627,0.329-5.152-0.09
				L-12.959-0.229z"/>
		</g>
		<g>
			<path fill="#009036" d="M-1.735,1.377c5.016,5.233,8.85,13.008,8.85,13.008C4.747,7.917,2.253,4.807-1.853-0.243L-1.735,1.377z"
				/>
			<path fill="#009036" d="M1.003,5.443c0.254,1.415,1.776,7.109,1.776,7.109l-1.427-3.43C0.972,7.327,1.569,5.584,1.3,4.086
				L1.003,5.443z"/>
			<path fill="#009036" d="M2.798,8.724c0.254,1.415,1.348,6.121,1.348,6.121l-0.443-2.367C3.61,10.938,3.365,8.864,3.096,7.366
				L2.798,8.724z"/>
			<path fill="#009036" d="M4.943,11.601c0.174,0.861,1.972,4.033,1.972,4.033l-1.341-1.751c-0.057-0.938-0.22-2.201-0.405-3.113
				L4.943,11.601z"/>
			<path fill="#009036" d="M6.825,14.427c0.384,0.715,1.793,3.807,1.793,3.807l-0.856-2.156c-0.226-0.799-0.655-1.86-1.062-2.617
				L6.825,14.427z"/>
			<path fill="#009036" d="M3.781,9.765c0.254,1.415,1.348,6.121,1.348,6.121L4.29,12.887c-0.093-1.539,0.057-2.981-0.212-4.479
				L3.781,9.765z"/>
			<path fill="#009036" d="M4.377,5.378c0.834,0.481,3.79,1.847,3.79,1.847L6.195,5.992C5.151,5.339,3.172,5.839,2.289,5.329
				L4.377,5.378z"/>
			<path fill="#009036" d="M6.01,7.399c1.118,0.709,3.647,2.924,3.647,2.924L7.793,9.117C6.52,8.542,4.843,7.639,3.659,6.888
				L6.01,7.399z"/>
			<path fill="#009036" d="M6.257,11.312c0.62,0.542,2.414,3.716,2.414,3.716L7.828,12.92c-0.731-0.455-1.679-1.155-2.335-1.729
				L6.257,11.312z"/>
			<path fill="#009036" d="M5.311,9.097c0.927,0.564,3.583,3.419,3.583,3.419l-1.631-2.326c-1.056-0.457-2-0.573-2.981-1.172
				L5.311,9.097z"/>
			<path fill="#009036" d="M-0.5,3.793c0.254,1.416,1.388,7.961,1.388,7.961l-1.039-4.281c-0.38-1.796,0.217-3.539-0.052-5.037
				L-0.5,3.793z"/>
			<path fill="#009036" d="M-1.69,2.856c0.254,1.415,1.388,7.961,1.388,7.961l-1.039-4.281c-0.38-1.796,0.217-3.539-0.052-5.037
				L-1.69,2.856z"/>
			<path fill="#009036" d="M1.472,3.049c0.896,0.312,5.9,2.239,5.9,2.239L4.537,3.539c-1.13-0.44-3.039-0.042-3.988-0.372
				L1.472,3.049z"/>
			<path fill="#009036" d="M1.047,1.333C2.048,1.724,6.685,3.48,6.685,3.48L3.689,1.981c-1.264-0.563-2.61,0.026-3.67-0.387
				L1.047,1.333z"/>
		</g>
		<g>
			<path fill="#009036" d="M10.392,4.123c5.327,4.498,9.139,10.947,9.139,10.947c-2.24-5.313-4.853-7.954-9.162-12.247L10.392,4.123
				z"/>
			<path fill="#009036" d="M13.217,7.543c0.191,1.146,1.526,5.786,1.526,5.786l-1.382-2.828c-0.307-1.457,0.489-2.809,0.287-4.021
				L13.217,7.543z"/>
			<path fill="#009036" d="M15.027,10.275c0.19,1.146,1.108,4.971,1.108,4.971l-0.34-1.917c0-1.234-0.136-2.904-0.338-4.117
				L15.027,10.275z"/>
			<path fill="#009036" d="M17.261,12.709c0.139,0.698,1.958,3.345,1.958,3.345l-1.399-1.483c0-0.752-0.099-1.771-0.246-2.51
				L17.261,12.709z"/>
			<path fill="#009036" d="M19.2,15.085c0.386,0.595,1.772,3.151,1.772,3.151l-0.822-1.774c-0.201-0.652-0.615-1.526-1.024-2.156
				L19.2,15.085z"/>
			<path fill="#009036" d="M16.07,11.17c0.19,1.145,1.108,4.97,1.108,4.97l-0.746-2.446c0-1.234,0.27-2.375,0.068-3.588L16.07,11.17
				z"/>
			<path fill="#009036" d="M17.046,7.708c0.912,0.438,4.169,1.718,4.169,1.718l-2.15-1.11c-1.139-0.589-3.417-0.316-4.382-0.78
				L17.046,7.708z"/>
			<path fill="#009036" d="M18.758,9.426c1.219,0.638,3.934,2.567,3.934,2.567l-2.03-1.082c-1.404-0.541-3.243-1.369-4.533-2.045
				L18.758,9.426z"/>
			<path fill="#009036" d="M18.77,12.563c0.666,0.473,2.481,3.12,2.481,3.12l-0.811-1.735c-0.798-0.41-1.825-1.03-2.529-1.53
				L18.77,12.563z"/>
			<path fill="#009036" d="M17.849,10.734c1.012,0.511,3.828,2.959,3.828,2.959l-1.689-1.961c-1.166-0.433-2.228-0.586-3.299-1.126
				L17.849,10.734z"/>
			<path fill="#009036" d="M11.626,6.13c0.19,1.146,1.026,6.44,1.026,6.44l-0.883-3.482c-0.307-1.457,0.489-2.81,0.287-4.021
				L11.626,6.13z"/>
			<path fill="#009036" d="M10.342,5.306c0.19,1.146,1.027,6.44,1.027,6.44l-0.884-3.482c-0.307-1.457,0.489-2.81,0.287-4.021
				L10.342,5.306z"/>
			<path fill="#009036" d="M13.914,5.663c0.995,0.307,6.534,2.167,6.534,2.167l-3.094-1.579c-1.251-0.423-3.442-0.229-4.495-0.553
				L13.914,5.663z"/>
			<path fill="#009036" d="M13.549,4.267c1.108,0.376,6.245,2.077,6.245,2.077L16.5,4.954c-1.394-0.53-2.96-0.146-4.134-0.545
				L13.549,4.267z"/>
		</g>
		<g>
			<path fill="#009036" d="M22.362,7.215c9.256,2.037,17.473,6.526,17.473,6.526C34.255,9.674,29.5,8.267,21.691,6.004L22.362,7.215
				z"/>
			<path fill="#009036" d="M27.781,9.267c0.817,0.997,4.87,4.805,4.87,4.805l-3.222-2.087c-1.125-1.242-0.74-2.838-1.605-3.893
				L27.781,9.267z"/>
			<path fill="#009036" d="M31.521,11.089c0.817,0.997,3.916,4.211,3.916,4.211l-1.395-1.66c-0.609-1.158-1.613-2.67-2.478-3.726
				L31.521,11.089z"/>
			<path fill="#009036" d="M35.671,12.457c0.528,0.599,4.237,2.336,4.237,2.336l-2.581-0.817c-0.372-0.707-1.004-1.622-1.563-2.256
				L35.671,12.457z"/>
			<path fill="#009036" d="M39.405,13.892c0.804,0.4,3.896,2.231,3.896,2.231l-1.962-1.328c-0.587-0.53-1.566-1.181-2.417-1.604
				L39.405,13.892z"/>
			<path fill="#009036" d="M33.338,11.5c0.817,0.997,3.916,4.211,3.916,4.211l-2.191-1.99c-0.609-1.159-0.816-2.34-1.681-3.396
				L33.338,11.5z"/>
			<path fill="#009036" d="M32.921,7.851c1.421,0.037,6.354-0.098,6.354-0.098l-3.388-0.16c-1.795-0.086-4.669,1.104-6.174,1.064
				L32.921,7.851z"/>
			<path fill="#009036" d="M36.029,8.761c1.925,0.099,6.463,0.797,6.463,0.797l-3.215-0.183c-2.121,0.067-4.959,0.044-6.997-0.061
				L36.029,8.761z"/>
			<path fill="#009036" d="M37.593,11.701c1.112,0.17,4.817,1.91,4.817,1.91l-1.928-1.297c-1.256-0.057-2.918-0.218-4.095-0.398
				L37.593,11.701z"/>
			<path fill="#009036" d="M35.475,10.362c1.589,0.064,6.515,1.207,6.515,1.207l-3.199-1.146c-1.753,0.071-3.232,0.362-4.914,0.295
				L35.475,10.362z"/>
			<path fill="#009036" d="M24.982,8.593c0.817,0.997,4.534,5.624,4.534,5.624l-2.885-2.907c-1.125-1.241-0.741-2.837-1.605-3.892
				L24.982,8.593z"/>
			<path fill="#009036" d="M22.879,8.346c0.817,0.997,4.534,5.624,4.534,5.624l-2.885-2.906c-1.125-1.242-0.741-2.838-1.605-3.893
				L22.879,8.346z"/>
			<path fill="#009036" d="M27.773,7.216c1.465-0.12,9.7-0.646,9.7-0.646l-4.866-0.212c-1.861,0.115-4.66,1.196-6.21,1.324
				L27.773,7.216z"/>
			<path fill="#009036" d="M26.603,6.055c1.649-0.102,9.272-0.611,9.272-0.611L30.84,5.49c-2.103,0.074-3.983,1.076-5.729,1.185
				L26.603,6.055z"/>
		</g>
	</g>
</symbol>
<g>
	<linearGradient id="SVGID_1_" gradientUnits="userSpaceOnUse" x1="0.5" y1="97.3667" x2="272.6797" y2="97.3667">
		<stop  offset="0" style="stop-color:#C2551E"/>
		<stop  offset="1" style="stop-color:#E2956D"/>
	</linearGradient>
	<path fill-rule="evenodd" clip-rule="evenodd" fill="url(#SVGID_1_)" stroke="#1A171B" stroke-miterlimit="3.8637" d="
		M74.838,164.875c-13.094,8.619-29.071,11.842-40,3.941c-13.532-9.784-14.456-13.85-23.211-23.176
		c-5.764-6.141-8.78-10.66-9.726-18.893c-0.397-3.465,0.339-5.449,0.312-8.937c-0.045-6.016-2.778-9.557-1.248-15.375
		c1.668-6.345,5.394-8.559,9.873-13.62c1.1-1.242,0.298-3.338,1.188-5.233c1.26-2.682,3.605-3.052,5.167-5.571
		c2.174-3.508,1.019-6.521,2.968-10.159c2.81-5.244,8.264-5.352,10.873-10.698c1.053-2.156,1.17-3.566,1.932-5.841
		c0.767-2.294,2.062-5.504,7.147-7.46c1.754-0.674,3.649-0.532,5.571-1.754c2.087-1.326,2.394-3.057,4.183-4.762
		c5.515-5.253,13.437-5.397,17.284-9.087c2.124-2.038,4.48-5.659,8.2-8.262c6.868-4.806,13.346-1.801,20.678-5.865
		c2.188-1.213,3.113-2.438,5.386-3.484c3.904-1.797,6.751-0.681,10.834-2.023c4.669-1.535,5.571-5.167,11.237-5.707
		c9.43-0.898,14.111,0.54,24.289,0.092c3.149-0.138,4.106-2.481,6.767-1.846c1.41,0.336,1.847,1.521,3.278,1.754
		c2.361,0.384,1.226-2.307,5.643-2.405c4.535-0.102,3.375,2.124,5.814,2.497c3.042,0.466,4.343-1.14,7.78-1.307
		c4.998-0.243,25.28,6.955,26.834,9.754c1.424,2.565,1.163,4.513,3.412,5.977c2.021,1.315,3.832,0.157,6.111,0.944
		c3.86,1.333,5.76,3.135,8.405,6.246c2.691,3.166,1.727,5.884,4.856,9.484c2.458,2.828,5.893,0.763,9.215,2.429
		c4.193,2.103,6,4.379,8.984,8c3.121,3.789,4.492,6.326,6.341,10.873c1.713,4.214,0.767,7.292,2.938,11.288
		c1.354,2.489,3.267,3.189,4.387,5.792c0.891,2.069-0.038,3.783,1.233,5.643c0.963,1.409,2.212,1.531,3.394,2.762
		c3.192,3.323,3.604,6.325,4.919,10.741c1.927,6.469,2.002,10.386,1.443,17.249c-0.193,2.375,2.161,2.909,2.718,5.09
		c0.575,2.259,0.575,3.717,0,5.976l-1.469,5.559l-1.249,9.249c0,0-1.523,3.86-3.259,5.779c-1.633,1.807-2.91,2.51-5.054,3.664
		c-1.694,0.913-2.77,1.181-4.565,1.873c-11.838,4.568-19.185,5.218-31.688,7.376c-6.936,1.196-11.26,0.091-17.873,2.497
		c-7.783,2.833-9.716,9.289-17.562,11.941c-8.64,2.922-14.528-1.59-23.376,0.625c-8.682,2.174-13.071,5.292-20.565,10.186
		c-5.248,3.427-6.91,7.429-12.683,9.873c-5.911,2.502-9.975,1.174-16.313,2.186c-6.343,1.012-10.031,4.814-16.195,3.004
		c-2.988-0.877-4.556-1.946-6.984-3.875C89.623,186.866,81.057,175.4,74.838,164.875z"/>
	<linearGradient id="SVGID_2_" gradientUnits="userSpaceOnUse" x1="5.9443" y1="97.3682" x2="267.2344" y2="97.3682">
		<stop  offset="0" style="stop-color:#D48862"/>
		<stop  offset="1" style="stop-color:#F0CAB6"/>
	</linearGradient>
	<path fill-rule="evenodd" clip-rule="evenodd" fill="url(#SVGID_2_)" d="M77.309,162.173c-12.57,8.275-27.908,11.369-38.399,3.783
		c-12.991-9.392-13.878-13.295-22.282-22.248c-5.533-5.895-8.43-10.232-9.337-18.137c-0.382-3.326,0.325-5.231,0.3-8.579
		c-0.044-5.775-2.668-9.175-1.199-14.76c1.602-6.091,5.179-8.216,9.479-13.075c1.056-1.192,0.285-3.205,1.14-5.023
		c1.21-2.574,3.462-2.93,4.96-5.349c2.087-3.368,0.979-6.26,2.85-9.752c2.697-5.034,7.934-5.138,10.438-10.271
		c1.01-2.07,1.123-3.423,1.854-5.607c0.736-2.202,1.979-5.284,6.862-7.162c1.684-0.647,3.503-0.511,5.349-1.684
		c2.003-1.273,2.297-2.935,4.015-4.571c5.293-5.043,12.899-5.181,16.592-8.724c2.04-1.957,4.302-5.433,7.873-7.932
		c6.594-4.613,12.813-1.729,19.85-5.63c2.102-1.165,2.989-2.341,5.171-3.345c3.748-1.726,6.48-0.654,10.4-1.943
		c4.482-1.474,5.349-4.96,10.788-5.478c9.053-0.862,13.547,0.518,23.317,0.089c3.023-0.133,3.941-2.382,6.496-1.773
		c1.354,0.323,1.772,1.46,3.146,1.684c2.267,0.369,3.121-2.297,5.417-2.309c2.37-0.012,3.24,2.039,5.582,2.398
		c2.92,0.447,4.169-1.094,7.47-1.254c4.797-0.233,24.269,6.677,25.76,9.363c1.366,2.463,1.116,4.332,3.275,5.737
		c1.94,1.263,3.679,0.151,5.867,0.907c3.706,1.28,5.529,3.009,8.068,5.996c2.584,3.04,1.658,5.648,4.663,9.105
		c2.359,2.714,5.656,0.732,8.846,2.331c4.025,2.019,5.76,4.204,8.624,7.68c2.997,3.637,4.313,6.072,6.088,10.438
		c1.645,4.045,0.736,7,2.821,10.836c1.299,2.39,3.135,3.061,4.211,5.56c0.855,1.986-0.037,3.632,1.184,5.417
		c0.925,1.352,2.123,1.47,3.258,2.651c3.064,3.189,3.46,6.072,4.723,10.311c1.85,6.211,1.922,9.971,1.385,16.559
		c-0.186,2.28,2.076,2.793,2.609,4.886c0.553,2.168,0.553,3.569,0,5.737l-1.41,5.336l-1.199,8.878c0,0-1.462,3.707-3.128,5.549
		c-1.567,1.733-2.794,2.408-4.851,3.518c-1.627,0.877-2.66,1.133-4.384,1.798c-11.364,4.386-18.415,5.009-30.42,7.081
		c-6.658,1.148-10.81,0.086-17.158,2.397c-7.472,2.72-9.326,8.917-16.858,11.464c-8.293,2.804-13.947-1.527-22.44,0.6
		c-8.335,2.086-12.548,5.08-19.743,9.777c-5.038,3.29-6.634,7.132-12.176,9.479c-5.674,2.402-9.574,1.127-15.659,2.098
		c-6.089,0.973-9.63,4.621-15.547,2.885c-2.869-0.843-4.374-1.869-6.705-3.721C91.502,183.286,83.279,172.279,77.309,162.173z"/>
	<path fill-rule="evenodd" clip-rule="evenodd" fill="none" stroke="#1A171B" stroke-miterlimit="3.8637" d="M139.651,6.912"/>
	<path fill-rule="evenodd" clip-rule="evenodd" fill="none" stroke="#1A171B" stroke-miterlimit="3.8637" d="M164.92,14.912"/>
	<path fill-rule="evenodd" clip-rule="evenodd" fill="#E8B59B" d="M146.654,95.921c3.497,0.692,5.487,2.547,8.967,1.774
		c3.151-0.7,5.61-1.642,6.871-4.613c0.764-1.798-1.602-4.665,0.323-5c1.307-0.228,2.179,0.662,2.903,1.774
		c1.416,2.175-0.969,4.169-2.742,6.064c-2.442,2.611-6.266,0.501-8.581,3.226c-1.057,1.243-1.431,2.157-1.936,3.709
		c-0.694,2.137,0.249,3.618-0.483,5.742c-1.08,3.13,2.162-6.296-0.322-8.484c-1.3-1.144-3.146-0.075-4.194-1.452
		C146.785,97.776,147.031,96.865,146.654,95.921z"/>
	<path fill-rule="evenodd" clip-rule="evenodd" fill="#E8B59B" d="M157.719,111.179c3.434,1.359,5.545,1.75,8.806,3.484
		c4.802,2.554,5.755,7.312,11.064,8.484c3.711,0.819,5.98-0.081,9.71-0.807c5.713-1.112,8.787-2.605,13.968-5.258
		c2.036-1.042,3.15-4.105,5.097-2.903c2.082,1.285-3.097,2.257-4.936,3.871c-1.067,0.937-2.733,1.07-2.659,2.488
		c0.1,1.883,3.433,1.731,5.659,2.771c1.714,0.8,4.204,0.109,4.423,1.987c0.175,1.504-0.977,3.798-2.326,3.109
		c-1.11-0.567,0.056-2.037-0.483-3.161c-1.328-2.774-4.756-1.081-7.471-2.525c-0.994-0.529-1.406-1.119-2.465-1.507
		c-3.247-1.19-5.105,1.84-8.484,2.58c-4.585,1.005-7.479,2.668-11.967,1.291c-4.987-1.531-5.533-6.093-9.774-9.129
		C162.881,113.807,160.901,112.978,157.719,111.179z"/>
	<g>
		<path fill-rule="evenodd" clip-rule="evenodd" fill="#E8B59B" d="M11.078,89.323c1.182,0.325,0.774,1.247,1.321,2.009
			c1.156,1.61,1.889,2.476,3.309,3.859c1.509,1.47,3.503,1.398,4.209,3.382c0.291,0.817,0.286,1.339,0.276,2.206
			c-0.012,0.981,0.26,1.769-0.414,2.481c-1.004,1.062,0.003-2.454-0.832-3.653c-0.982-1.412-2.42-1.194-3.859-2.137
			c-1.97-1.288-4.046-1.532-4.691-3.795C9.925,92.023,11.508,91.688,11.078,89.323z"/>
		<path fill-rule="evenodd" clip-rule="evenodd" fill="#E8B59B" d="M17.316,105.698c-1.705,0.296-2.438,1.575-3.101,3.174
			c-0.654,1.58,0.202,2.696-0.073,4.383c-0.405,2.474-1.464,3.639-2.362,5.979c-0.567,1.476-2.612,2.742-1.431,3.792
			c1.236,1.1,2.063-1.566,3.424-2.51c1.579-1.096,2.626-1.492,4.133-2.685c1.014-0.802,2.389-0.925,2.464-2.215
			c0.069-1.189-1.264-1.396-1.845-2.436C17.082,110.601,20.229,105.192,17.316,105.698z"/>
		<path fill-rule="evenodd" clip-rule="evenodd" fill="#E8B59B" d="M29.034,99.504c1.816-1.942,5.55-4.383,5.86-3.555
			c0.442,1.176-2.549,2.886-2.971,5.74c-0.508,3.442-1.016,5.313,0.665,7.917c2.288,3.547,5.504,5.722,10.071,7.471
			c4.438,1.698,7.392,1.668,12.123,1.227c8-0.748,12.536,4.344,19.717,4.143c1.456-0.041,2.393-0.771,3.336-1.946
			c1.611-2.009,1.969-4.822,0.107-6.602c-1.935-1.852-4.507-1.424-7.203-2.757c-4.84-2.392-8.09-3.715-11.205-8.123
			c-1.318-1.866-3.633-3.991-2.696-5.2c0.354-0.457,1.142-1.851,1.683-2.056c1.447-0.549,1.906,7.019,6.786,9.809
			c4.212,2.407,5.657,4.274,9.934,5.076c1.583,0.297,2.348,0.746,4.116,0.332c0.824-0.193,1.381-0.621,1.637-1.429
			c1.459-4.603,2.353-11.667,3.04-15.98c1.169-6.652,3.263-10.025,3.909-18.101c0.353-4.414-0.559-10.244-2.008-11.555
			c-1.353-1.223-2.827-0.868-4.633-0.618c-5.156,0.714-6.37,12.762-7.155,11.269c-0.836-1.59-2.281-2.1-2.535-3.894
			c-0.385-2.718,4.585-3.384,3.706-5.985c-0.531-1.574-1.627-2.144-3.088-2.934c-1.336-0.721-2.785-0.515-3.769-0.978
			c-1.169-0.55,0.923-2.701,0.563-4.389c-0.464-2.173-2.59-2.485-3.452-4.533c-1.412-3.353-0.688-8.233,0.209-9.327
			c0.758-0.924,1.802-1.272,2.934-0.889c0.777,0.264-1.787,5.408-0.463,8.418c0.939,2.135,2.636,2.549,4.041,4.412
			c1.13,1.499,0.973,3.109,2.595,4.055c1.797,1.047,3.492,0.956,5.333-0.011c3.136-1.646,0.375-5.619,1.616-8.937
			c1.967-5.256,5.814-6.657,8.642-11.505c1.597-2.737,1.438-3.719,3.626-7.271c1.355-2.201,6.739-6.239,7.042-4.991
			c0.431,1.779-0.991,1.399-1.747,2.721c-0.771,1.348-0.619,2.27-1.719,3.714c-0.826,1.169-0.914,0.737-2.133,2.318
			c-0.605,0.788-1.072,2.279-2.043,3.164c-1.22,1.111-2.228,2.903-3.358,4.467c-1.78,2.459-3.535,2.961-4.521,5.584
			c-1.415,3.764,0.819,6.239,1.139,10.247c0.169,2.117-0.725,3.599,0.344,5.433c0.86,1.477,2.434,1.255,3.421,2.737
			c1.05,1.577,1.377,5.97-0.154,9.227c-1.891,4.021-0.481,6.689-2.008,10.617c-1.671,4.3-2.294,7.593-3.051,12.587
			c-0.836,5.517-2.449,8.964-0.771,14.285c0.727,2.306,1.108,3.776,2.741,5.559c1.061,1.158,5.432,2.299,9.019,1.983
			c2.72-0.239,4.578-0.405,6.651-2.181c2.655-2.273,1.72-8.715,3.094-8.411c1.932,0.427,3.377,1.397,3.833,3.322
			c0.572,2.411-1.845,3.367-3.524,5.287c-1.614,1.846-2.281,3.876-1.544,6.294c0.319,1.045,1.79,1.416,1.39,2.433
			c-0.153,0.39-2.229-1.722-3.86-2.433c-1.794-0.783-2.953-0.816-4.87-1.216c-5.712-1.192-10.061-4.598-14.901-1.341
			c-3.734,2.512-4.434,8.13-5.236,10.282c-0.607,1.629,0.347,3.659-0.555,4.422c-0.765,0.646-1.71-0.589-2.567,0
			c0.984-0.676-2.946,6.387-2.912,6.313c-1.304,2.85-2.451,4.308-3.314,7.319c-0.577,2.016-1.114,3.195-0.971,5.287
			c0.282,4.105,4.858,4.918,5.75,8.85c-1.196,0.439-2.054,1.539-2.707,1.664c-3.693,0.703-7.682-10.929-5.17-16.031
			c1.497-3.041,4.609-5.922,4.209-10.211c-0.199-2.143-1.1-4.535-1.773-5.223c-0.461-0.471-2.699-0.403-4.436-0.389
			c-1.836,0.016-2.761,0.655-4.68,0.515c-1.209-0.089-3.002-0.873-2.428-1.941c0.413-0.771,1.227-0.654,2.147-0.642
			c3.996,0.057,6.757,1.752,10.537,0.141c2.813-1.199,4.408-2.246,5.952-5.1c0.446-0.826,1.357-1.507,1.207-2.083
			c-0.19-0.731-3.244-0.841-5.287-1.483c-3.082-0.969-5.007-1.229-7.777-2.854c-2.152-1.263-2.659-0.804-5.35-0.719
			c-7.402,0.234-11.139-1.957-11.701-1.573c-1.9,1.299-2.085,5.238-2.161,8.754c-0.077,3.523-0.262,6.013,1.787,8.858
			c1.685,2.339,3.075,4.633,2.724,3.929c-0.562-1.123-2.42-0.336-3.738-1.089c-2.699-1.542-3.711-3.636-4.188-6.78
			c-0.44-2.899,1.003-4.588,0.618-7.496c-0.213-1.605-0.328-3.837-1.025-4.024c-0.659-0.177-2.875,2.292-4.318,4.117
			c-1.451,1.834-2.243,2.885-4.221,3.986c-2.341,1.305-4.036,1.506-6.715,1.454c-0.93-0.019-1.613,0.403-2.372-0.237
			c-1.216-1.028,2.771-0.445,4.454-1.029c1.92-0.666,3.005-1.143,4.68-2.292c1.541-1.059,2.329-1.805,3.551-3.219
			c1.566-1.812,3.461-2.829,3.243-5.213c-0.086-0.946-0.219-1.547-0.796-2.302c-1.356-1.778-2.339-1.965-4.454-3.257
			c-2.255-1.377-3.736-2.022-5.428-4.052c-0.702-0.842-1.264-3.509-0.936-4.959C26.62,102.106,27.339,100.707,29.034,99.504z"/>
		<path fill-rule="evenodd" clip-rule="evenodd" fill="#E8B59B" d="M45.925,77.972c-1.441-0.396-1.71-0.318-2.753-0.064
			c-1.02,0.249-2.706-0.54-2.367,1.28c0.451,2.421,4.697,3.483,5.567,6.464c1.312,4.49,2.107,6.632,2.177,11.264
			c0.036,2.398-0.769,5.184-0.064,5.888c0.057,0.056,0.116,0.044,0.192,0.064c1.085,0.286,1.599-0.586,1.856-2.198
			c0.512-3.199,0.911-6.098,3.584-8.511c1.715-1.548,3.648-1.28,5.312-2.624c1.146-0.925,2.784-2.312,4.416-3.947
			c0.823-0.825,1.459-1.17,2.048-2.175c1.673-2.853-1.011-5.083-1.313-8.377c-0.308-3.36,1.364-7.876-0.224-8.647
			c-0.771-0.374-0.124-0.531-0.979-0.557c-0.685-0.02-0.066,6.607-1.389,10.987c-1.256,4.161-2.605,6.4-5.695,9.345
			c-1.188,1.132-1.686,2.466-3.322,2.585c-2.014,0.147-2.824-1.629-4.029-3.249c-1.44-1.934-1.545-3.625-2.046-5.834
			C46.728,78.924,46.724,78.215,45.925,77.972z"/>
		<path fill-rule="evenodd" clip-rule="evenodd" fill="#E8B59B" d="M148.227,7.587c0.932,1.895,2.752,1.9,3.003,5.681
			c0.144,2.167,2.721,2.049,4.602,3.135c1.51,0.872,2.408,1.284,3.999,1.999c2.259,1.017,4.559,0.205,5.934,2.266
			c0.979,1.469,1.579,2.918,0.733,4.468c-0.388,0.709-0.7,1.209-1.467,1.466c-1.698,0.569-0.927-2.744-2.132-4.068
			c-1.229-1.35-2.137-2.219-3.936-2.532c-2.026-0.353-2.982,1.368-4.789,2.353c-1.78,0.97-1.862,0.934-2.586,2.828
			c-0.201,0.524-0.022,1.113,0,1.674c0.072,1.823,0.711,0.484,2.241,1.479c1.256,0.817,2.72,0.524,3.629,1.716
			c0.926,1.214,0.632,1.42,1.825,2.371c1.254,1,1.588,2.149,3.146,2.527c1.574,0.382,2.335,1.074,3.934,1.336
			c2.758,0.452,6.273,1.775,7.109-0.891c0.575-1.831-0.389-3.266-1.781-4.586c-1.077-1.021-2.545-0.4-3.473-1.559
			c-0.567-0.709-0.762-1.253-0.891-2.152c-0.313-2.188,1.105-3.476,2.746-4.957c1.993-1.8,5.287,0.161,6.516-2.227
			c0.941-1.829-1.595-3.549-0.445-5.254c1.067-1.583,5.475-1.742,5.031-0.816c-0.508,1.061-1.737,1.258-1.781,2.434
			c-0.035,0.958,1.054,1.269,1.039,2.227c-0.014,0.894-0.244,1.549-0.965,2.078c-0.658,0.484-1.266,0.188-2.063,0.371
			c-1.24,0.285-1.927,0.515-3.117,0.965c-1.402,0.53-3.602,0.122-3.488,1.617c0.073,0.961,1.024,1.108,1.633,1.855
			c0.641,0.786,1.067,1.192,1.559,2.078c0.869,1.567,0.32,2.87,1.188,4.438c0.55,0.993,0.769,1.789,1.781,2.301
			c1.645,0.833,3.043-0.296,4.512-1.41c1.802-1.366,1.398-3.29,2.746-5.105c1.254-1.689,1.897-2.899,3.77-3.859
			c0.87-0.445,1.84-1.619,2.375-0.801c0.528,0.805-0.973,1.15-1.559,1.914c-1.151,1.5-1.646,2.458-2.73,4.008
			c-1.388,1.984-1.66,3.632-3.637,5.031c-1.237,0.876-3.485,0.044-3.563,1.559c-0.053,1.051,1.426,0.223,2.04,1.078
			c0.947,1.319,1.831,2.214,2.803,3.515c1.003,1.343,0.617,3.185,1.791,4.381c1.997,2.037,3.963,2.154,6.078,4.069
			c1.368,1.239,1.733,4.624,3.194,3.494c0.776-0.6,0.659-1.401,0.874-2.358c0.547-2.431-0.759-3.849-0.786-6.34
			c-0.033-3.007-0.111-4.841,0.961-7.651c1.054-2.761,3.95-3.315,4.28-6.252c0.182-1.609,12.471-12.18,11.575-10.204
			c-1.117,2.463-2.84,5.881-6.91,7.155c-1.334,0.417,0.126,1.585,0.365,2.961c0.477,2.746-0.758,4.652,0.523,7.126
			c0.927,1.788,2.419,2.076,3.582,3.719c1.105,1.562,0.325,4.236,2.234,4.368c1.658,0.114,3.524-0.845,4.438-2.234
			c1.699-2.586,0.926-4.755,1.311-7.825c0.113-0.904,1.071-1.856,1.344-2.726c0.844-2.697,0.141,3.72-0.14,6.532
			c-0.188,1.883-0.782,2.909-1.798,4.506c-1.125,1.769-2.263,2.373-3.756,3.844c-1.721,1.693-2.83,2.506-4.506,4.243
			c-2.31,2.394-3.331,3.997-5.504,6.515c-1.807,2.094-4.023,2.642-4.681,5.329c-0.393,1.609,1.157,1.789,1.529,3.403
			c1.127,4.889,13.021,10.263,8.044,9.627c-2.109-0.27-3.212-0.973-5.067-2.01c-3.099-1.731-3.248-6.468-6.776-6.078
			c-0.908,0.101-2.147-0.21-2.234,0.699c-0.283,2.958-0.463,5.069-1.592,7.817c-0.51,1.241-0.625,2.081-1.121,3.328
			c-0.449,1.128-1.334,1.274-2.18,2.146c-1.004,1.035-2.299,0.323-3.545,1.048c-3.006,1.749-2.675,4.782-3.756,8.088
			c-1.076,3.289-3.18,5.548-1.748,8.699c0.984,2.166,2.205,3.635,4.543,4.069c2.723,0.505,5.081,0.012,2.234,3.319
			c-0.355,0.413-0.501,0.705-0.924,1.049c-2.341,1.903-3.945-4.098-6.901-3.495c-2.311,0.471-2.524,2.801-4.593,3.931
			c-4.084,2.231-7.386-0.192-11.895,0.961c-2.344,0.6-3.873,0.667-5.853,2.06c-2.899,2.039-3.198,4.189-3.334,7.731
			c-0.073,1.939-0.326,3.048,0.614,4.745c1.208,2.18,2.086,2.648,3.963,4.287c2.581,2.254,2.596,2.121,5.555,3.849
			c2.533,1.479,5.654,2.663,8.241,4.048c2.802,1.499,4.012,3.787,6.509,4.785c2.311,0.925,3.838,2.453,6.325,2.375
			c1.938-0.062,3.555-1.123,4.841-0.958c3.096,0.399-1.711-0.188-4.321,1.522c-2.423,1.587-4.777,3.395-5.351,1.145
			c-0.335-1.313-1.249-1.734-2.257-2.639c-2.278-2.043-4.371-1.951-7.139-3.255c-2.553-1.202-3.719-3.579-6.509-3.159
			c-2.41,0.363-2.759,2.737-4.938,3.829c-1.569,0.787-1.591,0.31-2.735,1.64c-0.86,1-0.287,1.132-0.583,2.417
			c-0.25,1.083-1.039-3.585,0.666-5.167c1.144-1.061,1.226-0.522,2.461-1.475c1.197-0.921,2.183-1.611,2.298-3.117
			c0.154-2.031-2.028-2.463-3.446-3.925c-2.139-2.204-4.239-2.637-5.895-5.225c-1.442-2.255,0.103-7.835-2.217-6.497
			c-0.416,0.241-0.572,0.488-0.941,0.795c0.431-0.358-6.052,4.109-6.182,4.649c-0.429,1.787-5.738,4.904-8.191,5.702
			c-3.317,1.08-5.282,1.369-8.67,2.202c-2.482,0.61-3.82,1.678-6.373,1.532c-1.838-0.105-2.713-1.238-4.554-1.245
			c-3.006-0.01-4.49,1.581-6.987,3.255c-3.359,2.25-4.197,4.758-7.234,7.426c-1.92,1.686-3.481,2.122-5.129,4.075
			c-2.285,2.71-2.314,5.038-3.732,8.287c-1.68,3.845-1.229,6.925-4.172,9.915c-2.132,2.165-8.353,2.702-7.262,1.471
			c1.644-1.855,1.98-2.297,3.625-4.151c2.837-3.2,2.766-6.122,5.073-9.724c2.143-3.345,3.218-5.449,6.181-8.096
			c1.324-1.182,2.38-1.482,3.638-2.734c2.077-2.067,1.887-4.322,3.979-6.373c2.365-2.317,4.269-3.121,7.426-4.116
			c1.278-0.403,2.372,0.149,3.351-0.766c1.007-0.942-0.11-2.532,0.957-3.405c1.828-1.497,2.434,3.064,4.649,3.884
			c3.488,1.288,5.776-0.854,9.34-1.915c3.802-1.13,6.088-1.663,9.437-3.788c1.653-1.05,2.535-1.741,3.979-3.063
			c2.311-2.115,4.799-3.066,5.128-6.182c0.289-2.724-2.263-7.591-1.786-8.543c0.374-0.748,2.056,2.429,2.84,3.224
			c1.73,1.754,4.15,1.078,6.317-0.096c1.935-1.048,1.524-3.357,3.405-4.499c2.797-1.698,5.129-0.048,8.383,0.287
			c2.049,0.21,3.197,1.127,5.225,0.766c2.325-0.415,3.854-1.196,5.168-3.159c1.436-2.141,0.271-4.035,0.767-6.564
			c0.519-2.648,1.121-4.069,1.873-6.66c0.691-2.379,0.604-3.926,1.819-6.086c1.115-1.983,1.948-3.121,3.829-4.403
			c1.289-0.879,2.575-0.511,3.649-1.644c1.035-1.093,0.93-2.164,1.446-3.578c0.927-2.534,1.089-4.082,1.979-6.63
			c0.962-2.755,2.267-4.067,2.816-6.934c0.414-2.16,0.805-3.509,0.235-5.633c-0.673-2.511-2.137-3.493-3.89-5.412
			c-2.426-2.656-4.745-3.124-7.238-5.717c-2.357-2.451-2.109-5.557-5.184-7.01c-1.743-0.824-2.944-0.822-4.872-0.837
			c-1.833-0.015-2.817,0.698-4.65,0.685c-2.56-0.018-3.871-1.062-6.401-1.446c-1.741-0.264-3.069,0.582-4.491-0.457
			c-1.352-0.986-0.802-2.56-1.827-3.882c-0.813-1.05-1.464-1.484-2.52-2.291c-1.731-1.324-4.586-0.579-4.871-2.74
			c-0.124-0.935,0.16-1.493,0.532-2.36c0.96-2.233,4.093-1.587,4.872-3.89c0.241-0.712,0.428-1.161,0.305-1.903
			c-0.269-1.611-2.092-1.471-3.35-2.512c-0.698-0.578-1.18-0.826-1.751-1.529c-1.043-1.284-0.397-2.746-1.522-3.958
			c-0.986-1.063-2.652-2.328-3.37-3.588C142.739,4.521,146.867,4.823,148.227,7.587z"/>
		<path fill-rule="evenodd" clip-rule="evenodd" fill="#E8B59B" d="M205.381,65.331c2.455,1.729,3.635,2.427,4.957,4.758
			c1.645,2.9,2.648,5.402,1.297,8.451c-1.066,2.406-3.38,2.427-5.101,4.418c-1.525,1.765-3.202,2.655-3.305,4.985
			c-0.041,0.939-0.269,1.714,0.396,2.379c1.066,1.066,0.693-2.304,1.557-3.54c3.093-3.192,10.282-5.462,5.629-3.923
			c-1.138,0.376,1.44-0.354,2.358-0.243c3.957,0.479,2.38,6.093,1.876,10.046c-0.366,2.875-2.131,4.11-2.559,6.977
			c-0.481,3.229,0.868,5.083,0.683,8.341c-0.127,2.21-0.921,3.399-0.854,5.612c0.063,2.047,1.094,2.953,1.023,5.117
			c-0.15,4.688-3.351,6.682-6.635,10.03c-1.918,1.955-3.207,2.854-5.442,4.436c-2.287,1.619-3.5,4.678-6.14,3.735
			c-1.543-0.551-1.525-2.137-2.883-3.054c-1.362-0.919-2.333-1.945-3.924-1.535c-0.84,0.217-1.627,0.363-1.876,1.194
			c-0.38,1.27,2.081,0.382,3.241,1.023c1.437,0.796,3.001,1.241,3.069,2.883c0.063,1.516-3.657,2.24-2.388,3.07
			c0.395,0.258,0.702,0.239,1.168,0.315c1.832,0.3,2.89-0.482,4.615-1.168c3.182-1.264,4.402-3.053,7.146-5.101
			c2.772-2.069,3.59-4.841,6.993-5.458c2.17-0.395,3.517,1.368,5.612,0.682c1.275-0.417,1.741-1.172,2.883-1.876
			c1.115-0.686,1.719-1.126,2.9-1.689c4.816-2.294,8.285-1.657,13.611-1.365c4.176,0.229,9.385,5.891,10.559,1.876
			c0.244-0.833,0.35-1.369,0.171-2.217c-0.483-2.296-2.979-2.397-5.271-2.899c-2.678-0.587-4.271,0.421-6.978,0.853
			c-4.774,0.76-7.261,2.558-12.093,2.729c-1.856,0.066-2.909-0.008-4.76-0.17c-0.415-0.036-0.659-0.001-1.063-0.105
			c-2.533-0.658,0.174-4.095,0.1-6.711c-0.042-1.47-1.072-2.583-0.199-3.767c1.354-1.833,3.026,2.043,5.239,2.583
			c1.62,0.396,2.747,1.036,4.265,0.341c0.77-0.353,0.853-1.228,1.688-1.364c1.582-0.259,0.447,3.461,2.047,3.565
			c1.92,0.125-1.46-3.909,0.171-4.93c1.104-0.691,3.879-2.971,6.465-5.954c2.057-2.373,5.318,0.009,7.829-1.876
			c0.94-0.707,1.209-1.401,2.116-2.15c1.094-0.905,2.635-0.603,3.072-1.954c0.573-1.768-2.246-2.015-2.971-3.726
			c-1.15-2.711,3.238-7.474,0.295-7.545c-2.75-0.067-2.678,3.772-2.684,6.522c-0.003,1.71,1.356,2.587,1.023,4.264
			c-0.428,2.16-2.005,2.966-3.906,4.077c-2.112,1.234-4.35-0.321-6.124,1.364c-3.517,3.341-3.805,5.38-7.505,6.636
			c-2.332,0.792-4.063,1.554-6.294,0.512c-2.054-0.959-2.636-2.522-3.565-4.589c-1.311-2.917-0.753-4.974-0.682-8.17
			c0.047-2.15,0.28-3.352,0.512-5.49c0.506-4.674,3.529-7.612,1.685-11.936c-0.794-1.863-3.003-2.178-3.05-4.203
			c-0.069-3.001,3.742-2.879,6.391-4.293c1.939-1.035,3.978-0.423,5.154-2.28c1.195-1.885-0.436-3.5-0.197-5.72
			c0.128-1.192-0.057-1.995,0.559-3.024c1.689-2.826,4.046,3.395,5.656,6.267c1.562,2.784,1.181,10.789,2.379,7.831
			c0.376-0.926,0.023-1.627,0.477-2.516c1.604-3.141,5.906,5.43,8.512,3.054c2.843-2.593-5.872-2.32-8.341-5.271
			c-2.486-2.973-0.651-6.847-3.72-9.214c-1.702-1.314-3.064-2.597-5.133-2.01c-2.318,0.658-2.261,3.062-3.225,5.271
			c-0.914,2.095-0.225,3.824-1.625,5.631c-1.799,2.322-5.38,5.573-6.887,3.051c-0.816-1.366-1.726-5.449-4.157-7.979
			C209.335,67.225,208.302,66.727,205.381,65.331z"/>
		<path fill-rule="evenodd" clip-rule="evenodd" fill="#E8B59B" d="M147.914,25.774c-3.046,0.882-5.116,0.588-7.812,2.261
			c-1.613,1.001-2.268,1.919-3.667,3.202c-1.817,1.667-3.13,2.385-4.521,4.421c-1.741,2.55-1.502,4.599-2.725,7.435
			c-1.353,3.136-0.559,8.152-3.956,7.812c-1.712-0.171-1.97-2.721-3.667-2.449c-2.467,0.395,0.079,3.908,0,6.405
			c-0.136,4.271-1.298,6.656-0.942,10.914c0.397,4.749,1.638,7.297,3.29,11.768c1.686,4.559,4.168,6.559,5.275,11.291
			c0.474,2.023,0.922,3.203,0.753,5.274c-0.273,3.372-1.171,5.644-3.768,7.812c-2.809,2.345-5.473,2.048-9.13,2.16
			c-2.999,0.092-4.638-1.327-7.623-1.03c-1.921,0.191-6.156-0.154-4.798,1.218c0.916,0.925,2.206-0.156,3.29,0.565
			c2.484,1.653-3.876,2.599-6.304,4.333c-1.367,0.976-1.803,2.448-3.479,2.537c-2.307,0.122-3.441-2.032-4.145-4.232
			c-0.965-3.021,1.514-4.737,2.826-7.623c1.189-2.615,2.001-4.03,3.479-6.493c1.175-1.957,1.907-3.019,3.203-4.898
			c1.103-1.601,2.171-2.247,2.913-4.044c1.786-4.326-3.888-7.348-2.349-11.768c1.047-3.003,3.868-3.405,5.175-6.305
			c1.27-2.817,0.599-4.807,1.318-7.812c0.924-3.856,1.258-6.199,3.222-9.644c1.406-2.465,2.242-4.636,4.449-5.757
			c1.388-0.705,0.786-2.337,0.895-3.89c0.106-1.532-0.443-2.392-0.334-3.924c0.213-2.957,1.188-4.58,2.804-7.065
			c3.183-4.899,7.016-6.134,12.399-8.401c3.138-1.321,7.47,0.832,8.377-2.449c0.979-3.538-5.791,0.305-9.318,1.319
			c-5.731,1.648-9.584,2.821-13.363,7.435c-2.309,2.819-1.712,5.661-4.144,8.376c-2.317,2.586-4.481,3.072-7.436,4.898
			c-2.923,1.808-5.494,1.723-7.623,4.421c-2.409,3.055-2.074,5.814-2.349,9.695c-0.116,1.646,0.551,2.676,0,4.232
			c-0.745,2.106-3.768,1.753-4.145,3.956c-0.514,3.01,5.585-0.716,7.059-3.391c1.323-2.402-0.638-4.302-0.316-7.026
			c0.365-3.106,0.255-5.369,2.389-7.655c1.369-1.468,2.635-1.72,4.421-2.638c2.976-1.53,5.795-5.619,8-3.102
			c0.803,0.917,1.101,1.695,1.13,2.913c0.061,2.469-2.862,2.655-4.232,4.71c-2.274,3.411-2.653,5.89-3.579,9.884
			c-0.817,3.528,0.271,5.878-1.13,9.218c-1.493,3.558-5.257,3.91-6.305,7.624c-1.102,3.903,2.197,6.235,1.695,10.26
			c-0.501,4.014-2.252,5.933-4.145,9.507c-1.426,2.691-2.636,3.98-4.044,6.681c-1.429,2.74-2.987,4.164-3.202,7.247
			c-0.228,3.255,3.437,4.89,2.448,8c-0.48,1.515-2.292,1.802-2.261,3.391c0.049,2.406,3.225-1.943,5.275-3.203
			c2.188-1.343,3.367-2.195,5.594-3.474c3.234-1.856,4.938-3.309,8.522-4.338c3.856-1.107,7.464-3.63,10.261-0.753
			c1.683,1.731,1.434,3.539,1.783,5.928c0.638,4.357-5.254,13.345-1.407,11.203c3.266-1.819,1.823-5.555,2.914-9.13
			c0.993-3.256,1.22-5.203,2.449-8.377c1.286-3.321,2.185-5.15,4.044-8.188c1.927-3.149,3.416-4.657,5.677-7.576
			c2.114-2.729,2.442-5.363,5.525-6.917c1.589-0.801,2.988-0.075,4.421-1.13c1.074-0.792,0.799-2.322,2.072-2.726
			c1.34-0.424,2.64,0.031,3.391,1.219c0.957,1.512-1.692,2.553-1.507,4.333c0.181,1.734,0.66,4.545,2.261,3.856
			c1.449-0.625-0.18-2.509,0.188-4.044c0.538-2.253,1.33-3.484,2.913-5.175c2.066-2.205,4.581-1.672,6.791-3.733
			c1.934-1.805,3.286-3,3.847-5.585c0.648-2.993-1.681-4.567-1.884-7.623c-0.193-2.908,0.101-4.595,0.754-7.435
			c0.862-3.754,2.626-5.451,3.768-9.13c0.728-2.347,3.957-6.391,1.516-6.116c-1.427,0.161-1.914,1.248-2.835,2.348
			c-2.081,2.486-1.189,4.939-2.261,8c-1.01,2.889-2.347,4.259-3.014,7.246c-1.148,5.143,3.268,8.647,1.13,13.463
			c-1.792,4.038-4.104,6.502-8.376,7.624c-0.897,0.235-1.461,0.643-2.349,0.376c-1.544-0.462-0.811-2.421-1.696-3.768
			c-1.811-2.753-4.012-3.24-6.681-5.174c-2.762-2.002-5.873-8.021-7.247-4.898c-1.133,2.577,1.709,4.195,3.668,6.216
			c1.805,1.864,4.719,1.21,5.551,3.667c0.495,1.463,0.46,2.554-0.188,3.956c-1.228,2.655-4.586,0.973-7.058,2.537
			c-4.127,2.61-3.51,12.976-7.436,10.072c-1.754-1.297-1.735-2.957-2.537-4.985c-1.526-3.864-0.979-6.441-2.072-10.449
			c-1.156-4.247-3.334-6.257-3.768-10.638c-0.423-4.276-1.191-7.57,1.508-10.913c1.419-1.759,3.404-1.52,4.726-3.353
			c1.326-1.841,0.947-3.423,1.682-5.571c1.063-3.107,1.72-4.853,3.142-7.813c0.867-1.806,1.138-2.988,2.407-4.538
			c1.39-1.697,2.604-2.249,4.421-3.479C144.057,27.635,145.529,26.949,147.914,25.774z"/>
		<path fill-rule="evenodd" clip-rule="evenodd" fill="#E8B59B" d="M190.273,91.809c-0.194,0.255-0.549,0.847-0.232,0.79
			c0.529-0.096,4.096,0.192,6.387,1.291c1.848,0.885,3.137,1.407,4.193,3.161c1.514,2.512,0.142,4.6-0.161,7.516
			c-0.185,1.779-2.13,3.458-0.7,4.531c1.62,1.217,2.365-2.215,3.297-4.014c1.796-3.163,0.351-6.974,1.065-8.645
			c1.648-4.108,11.853-7.715,7.499-8.518c-2.993-0.552-4.644,1.5-7.031,3.387c-1.383,1.092-1.451,2.807-3.162,3.226
			c-1.918,0.469-2.79-1.355-4.677-1.936c-1.567-0.482-6.946-0.492-6.065-1.129C190.518,91.591,190.399,91.643,190.273,91.809z"/>
		<path fill="none" d="M253.635,85.108c-2.055-0.213-3.518,0.55-5.268-0.546c-2.984-1.869-3.747-6.235-1.457-8.911
			c1.051-1.228,2.244-1.17,3.629-2.003c1.232-0.741,1.66-1.936,3.096-2.003c1.333-0.062,1.776,1.654,3.096,1.457
			c1.615-0.241-1.881-1.941-3.46-2.355c-2.429-0.636-5.202,4.122-6.179,1.809c-4.37-10.355-7.639-14.998-16.729-17.093
			c-2.357-0.543-3.764-0.394-6.179-0.534c-2.407-0.139-4.278,1.301-6.179-0.182c-1.328-1.036-0.826-2.621-2.004-3.824
			c-1.333-1.362-2.666-1.262-4.37-2.185c1.137,0.994,1.938,1.396,2.914,2.549c1.209,1.429,0.918,2.991,2.367,4.176
			c2.312,1.89,4.667,0.227,7.636,0.546c2.133,0.229,3.381,0.167,5.45,0.729c8.379,2.271,14.512,7.703,15.09,16.364
			c0.181,2.711-1.005,4.191-0.911,6.907c0.083,2.381,3.299,5.109,1.093,6.009c-0.988,0.404-1.832,0.394-2.731-0.182
			c-0.549-0.351-0.577-0.86-1.08-1.274c-2.793-2.3-3.582,4.782-6.92,6.179c-2.193,0.918-5.026,3.263-5.996,1.093
			c-0.12-0.268-0.1-0.453-0.223-0.719c-0.77-1.653-2.258,2.155-2.479,3.965c-0.146,1.194-0.567,2.481,0.496,3.044
			c1.327,0.703,0.543-2.38,1.477-3.559c2.125-2.684,5.672-0.143,8.546-2.003c2.364-1.53,2.093-4.477,4.734-5.451
			c2.063-0.76,3.473,0.588,5.633,0.182c1.63-0.306,2.368-1.133,3.994-1.457"/>
	</g>
	<g>
		<linearGradient id="SVGID_3_" gradientUnits="userSpaceOnUse" x1="11.2051" y1="96.1973" x2="21.5269" y2="96.1973">
			<stop  offset="0" style="stop-color:#730100"/>
			<stop  offset="1" style="stop-color:#260100"/>
		</linearGradient>
		<path fill-rule="evenodd" clip-rule="evenodd" fill="url(#SVGID_3_)" d="M11.205,89.093c1.238,1.505,1.568,1.209,2.483,2.082
			c1.435,1.368,1.889,2.476,3.309,3.859c1.509,1.47,3.503,1.398,4.209,3.382c0.291,0.817,0.286,1.339,0.275,2.206
			c-0.011,0.981,0.261,1.769-0.413,2.481c-1.004,1.062,0.003-2.454-0.832-3.653c-0.982-1.412-2.42-1.194-3.859-2.137
			c-1.97-1.288-3.695-1.663-4.691-3.795C10.95,91.946,11.635,91.458,11.205,89.093z"/>
		<linearGradient id="SVGID_4_" gradientUnits="userSpaceOnUse" x1="12.2773" y1="114.3198" x2="22.6616" y2="114.3198">
			<stop  offset="0" style="stop-color:#730100"/>
			<stop  offset="1" style="stop-color:#260100"/>
		</linearGradient>
		<path fill-rule="evenodd" clip-rule="evenodd" fill="url(#SVGID_4_)" d="M19.605,105.542c-1.705,0.296-2.438,1.575-3.101,3.174
			c-0.654,1.58,0.202,2.696-0.074,4.383c-0.404,2.474-1.463,3.639-2.362,5.979c-0.566,1.476-2.611,2.742-1.43,3.792
			c1.236,1.1,2.063-1.566,3.423-2.51c1.58-1.096,2.626-1.492,4.134-2.685c1.014-0.802,2.389-0.925,2.464-2.215
			c0.069-1.189-1.264-1.396-1.845-2.436C19.371,110.444,22.518,105.036,19.605,105.542z"/>
		<linearGradient id="SVGID_5_" gradientUnits="userSpaceOnUse" x1="33.1953" y1="84.2212" x2="72.2358" y2="84.2212">
			<stop  offset="0" style="stop-color:#730100"/>
			<stop  offset="1" style="stop-color:#260100"/>
		</linearGradient>
		<path fill-rule="evenodd" clip-rule="evenodd" fill="url(#SVGID_5_)" d="M48.213,77.816c-1.441-0.396-1.678-0.055-2.752-0.064
			c-2.197-0.018-3.483-0.331-5.632,0.128c-2.23,0.476-3.393,0.64-5.376,2.304c-0.646,0.543-0.832,0.384-1.216,1.28
			c-0.408,0.953,2.263-1.967,4.032-2.518c2.17-0.674,3.692-0.699,5.824,0.085c3.122,1.149,4.697,3.483,5.567,6.464
			c1.311,4.49,2.107,6.632,2.177,11.264c0.035,2.398-0.769,5.184-0.064,5.888c0.056,0.056,0.116,0.044,0.192,0.064
			c1.085,0.286,1.599-0.586,1.856-2.198c0.512-3.199,0.911-6.098,3.584-8.511c1.715-1.548,3.648-1.28,5.312-2.624
			c1.145-0.925,2.108-4.066,4.416-3.947c2.487,0.128,1.6,1.92,3.903,5.057c0.68,0.926,1.664,2.175,1.985,1.898
			c1.172-1.012-2.82-5.404-3.841-9.13c-0.873-3.189-1.011-5.083-1.313-8.377c-0.308-3.36,1.363-7.876-0.224-8.647
			c-0.771-0.374-0.124-0.531-0.979-0.557c-0.685-0.02-0.066,6.607-1.389,10.987c-1.256,4.161-2.605,6.4-5.695,9.345
			c-1.189,1.132-1.686,2.466-3.322,2.585c-2.014,0.147-2.824-1.629-4.029-3.249c-1.44-1.934-1.545-3.625-2.046-5.834
			C49.017,78.768,49.012,78.059,48.213,77.816z"/>
		<linearGradient id="SVGID_6_" gradientUnits="userSpaceOnUse" x1="74.7871" y1="86.8633" x2="220.751" y2="86.8633">
			<stop  offset="0" style="stop-color:#260100"/>
			<stop  offset="1" style="stop-color:#260100"/>
		</linearGradient>
		<path fill-rule="evenodd" clip-rule="evenodd" fill="url(#SVGID_6_)" d="M150.187,8.847c1.297,1.666,1.795,2.818,3.332,4.265
			c1.581,1.488,2.721,2.049,4.602,3.135c1.51,0.872,2.408,1.284,3.998,1.999c2.26,1.017,4.56,0.205,5.935,2.266
			c0.979,1.469,1.579,2.918,0.732,4.468c-0.387,0.709-0.699,1.209-1.466,1.466c-1.698,0.569-0.927-2.744-2.132-4.068
			c-1.229-1.35-2.138-2.219-3.936-2.532c-2.027-0.353-3.261,0.481-5.067,1.466c-1.78,0.971-3.208,1.508-3.933,3.402
			c-0.199,0.524-0.355,0.839-0.333,1.4c0.073,1.823,2.669,1.071,4.198,2.065c1.257,0.817,2.094,1.208,3.002,2.399
			c0.927,1.213,0.34,2.65,1.533,3.602c1.254,1,2.508,0.235,4.066,0.613c1.574,0.382,2.335,1.074,3.934,1.336
			c2.758,0.452,6.272,1.775,7.109-0.891c0.574-1.831-0.389-3.266-1.781-4.586c-1.077-1.021-2.545-0.4-3.473-1.559
			c-0.568-0.709-0.763-1.253-0.891-2.152c-0.313-2.188,1.105-3.476,2.746-4.957c1.993-1.8,5.287,0.161,6.516-2.227
			c0.94-1.829-1.596-3.549-0.445-5.254c1.066-1.583,3.221-0.373,4.586-1.707c0.563-0.55,0.415-1.482,1.188-1.633
			c1.007-0.196-0.299,1.598-0.742,2.523c-0.508,1.061-1.737,1.258-1.781,2.434c-0.035,0.958,1.054,1.269,1.039,2.227
			c-0.014,0.894-0.245,1.549-0.965,2.078c-0.658,0.484-1.266,0.188-2.063,0.371c-1.24,0.285-1.927,0.515-3.117,0.965
			c-1.402,0.53-3.602,0.122-3.488,1.617c0.073,0.961,1.024,1.108,1.633,1.855c0.64,0.786,1.067,1.192,1.559,2.078
			c0.868,1.567,0.32,2.87,1.188,4.438c0.549,0.993,0.769,1.789,1.781,2.301c1.645,0.833,3.043-0.296,4.512-1.41
			c1.802-1.366,1.398-3.29,2.746-5.105c1.254-1.689,1.897-2.899,3.77-3.859c0.87-0.445,1.839-1.619,2.375-0.801
			c0.527,0.805-0.973,1.15-1.559,1.914c-1.151,1.5-1.646,2.458-2.73,4.008c-1.388,1.984-1.66,3.632-3.637,5.031
			c-1.237,0.876-3.485,0.044-3.563,1.559c-0.053,1.051,0.953,1.342,1.566,2.197c0.947,1.319,1.475,2.069,2.446,3.37
			c1.003,1.343,1.446,2.21,2.62,3.407c1.998,2.037,3.964,2.154,6.078,4.069c1.369,1.239,1.734,4.624,3.195,3.494
			c0.776-0.6,0.658-1.401,0.874-2.358c0.547-2.431-0.759-3.849-0.786-6.34c-0.033-3.007-0.112-4.841,0.961-7.651
			c1.054-2.761,3.95-3.315,4.28-6.252c0.181-1.609,11.112-12.976,10.217-11c-1.117,2.464-1.902,6.145-5.974,7.419
			c-1.333,0.417,0.548,2.118,0.787,3.494c0.477,2.746-0.758,4.652,0.523,7.126c0.927,1.788,2.419,2.076,3.582,3.719
			c1.105,1.562,0.325,4.236,2.234,4.368c1.658,0.114,2.145-1.581,3.058-2.97c1.699-2.586,0.926-4.755,1.311-7.826
			c0.113-0.904-0.011-1.452,0.262-2.321c0.845-2.697,2.603,4.052,2.321,6.864c-0.188,1.883-0.781,2.909-1.797,4.506
			c-1.125,1.769-2.263,2.373-3.757,3.844c-1.72,1.693-2.829,2.506-4.505,4.243c-2.31,2.394-3.331,3.997-5.504,6.515
			c-1.808,2.094-4.024,2.642-4.681,5.329c-0.394,1.609-0.197,2.63,0.175,4.244c1.127,4.889,14.375,9.422,9.397,8.786
			c-2.108-0.27-3.211-0.973-5.066-2.01c-3.1-1.731-3.248-6.468-6.777-6.078c-0.907,0.101-1.438,0.253-2.234,0.699
			c-2.592,1.451-1.317,4.466-2.446,7.214c-0.51,1.241-0.9,1.898-1.397,3.145c-0.449,1.129-0.202,2.062-1.048,2.934
			c-1.004,1.035-2.299,0.323-3.545,1.048c-3.006,1.749-2.675,4.782-3.756,8.088c-1.076,3.289-3.18,5.548-1.748,8.699
			c0.984,2.166,2.204,3.635,4.543,4.069c2.723,0.505,4.25-1.379,6.34-3.195c1.038-0.902,1.386-1.649,2.359-2.621
			c3.089-3.083-3.618,5.828-6.465,9.135c-0.355,0.413-0.501,0.705-0.924,1.049c-2.341,1.903-3.945-4.098-6.901-3.495
			c-2.311,0.471-2.524,2.801-4.593,3.931c-4.084,2.231-7.386-0.192-11.895,0.961c-2.345,0.6-3.874,0.667-5.854,2.06
			c-2.899,2.039-4.61,4.209-4.746,7.752c-0.074,1.939,0.209,3.144,1.148,4.841c1.208,2.18,2.965,2.532,4.842,4.171
			c2.58,2.254,3.605,4.112,6.564,5.84c2.533,1.479,4.456,1.255,7.042,2.639c2.778,1.487,3.584,3.617,6.51,4.787
			c2.311,0.924,3.789,1.227,6.276,1.148c1.924-0.061,2.933-1.203,4.842-0.957c3.096,0.398-4.918,1.58-7.219,3.881
			c-0.333,0.334-1.644,1.678-2.218-0.572c-0.335-1.313-1.248-1.734-2.256-2.639c-2.278-2.043-4.371-1.951-7.139-3.255
			c-2.553-1.202-3.719-3.579-6.51-3.159c-2.409,0.363-2.759,2.737-4.937,3.829c-1.569,0.787-3.122,0.104-4.267,1.437
			c-0.86,0.999-0.514,2.01-1.053,3.213c-0.951,2.123-0.311-4.217,1.395-5.798c1.144-1.061,2.497-0.484,3.733-1.437
			c1.196-0.921,2.183-1.611,2.297-3.117c0.155-2.031-2.027-2.463-3.445-3.925c-2.14-2.204-4.239-2.637-5.895-5.225
			c-1.442-2.255,0.103-7.835-2.217-6.497c-0.416,0.241-0.572,0.488-0.941,0.795c-2.321,1.927-5.479,1.716-6.182,4.649
			c-0.429,1.787,0.172,2.911,0.766,4.649c0.249,0.729,0.678,1.055,0.766,1.819c0.21,1.828-1.772-2.61-3.541-3.118
			c-2.479-0.712-3.729,1.554-6.182,2.352c-3.317,1.08-5.282,1.369-8.67,2.202c-2.482,0.61-3.82,1.678-6.373,1.532
			c-1.838-0.105-2.713-1.238-4.554-1.245c-3.007-0.01-4.49,1.581-6.988,3.255c-3.358,2.25-4.196,4.758-7.233,7.426
			c-1.92,1.686-3.481,2.122-5.129,4.075c-2.285,2.71-2.314,5.038-3.733,8.287c-1.679,3.845-1.229,6.925-4.171,9.915
			c-2.132,2.165-3.291,3.66-6.756,3.883c-1.681,0.109-6.426-1.969-7.307-3.405c-0.859-1.402-0.251-4.396,1.846-4.146
			c2.461,0.295,5.024,4.773,8.579,0.987c2.928-3.118,2.767-6.122,5.073-9.724c2.144-3.345,3.219-5.449,6.182-8.096
			c1.324-1.182,2.379-1.482,3.638-2.734c2.077-2.067,1.887-4.322,3.979-6.373c2.365-2.317,4.268-3.121,7.426-4.116
			c1.278-0.403,2.371,0.149,3.35-0.766c1.008-0.942-0.109-2.532,0.958-3.405c1.828-1.497,2.433,3.064,4.649,3.884
			c3.488,1.288,5.776-0.854,9.34-1.915c3.801-1.13,6.088-1.663,9.437-3.788c1.653-1.05,2.535-1.741,3.979-3.063
			c2.31-2.115,4.798-3.066,5.128-6.182c0.289-2.724-1.35-4.106-2.735-6.468c-0.612-1.045-1.38-1.423-1.723-2.584
			c-0.735-2.49,3.018,3.011,5.511,3.733c2.367,0.685,4.151,1.078,6.318-0.096c1.935-1.048,1.523-3.357,3.405-4.499
			c2.797-1.698,5.129-0.048,8.383,0.287c2.048,0.21,3.197,1.127,5.224,0.766c2.326-0.415,3.854-1.196,5.169-3.159
			c1.436-2.141,0.271-4.035,0.766-6.564c0.52-2.648,1.121-4.069,1.874-6.66c0.691-2.379,0.604-3.926,1.819-6.086
			c1.115-1.983,1.948-3.121,3.828-4.403c1.29-0.879,2.576-0.511,3.65-1.644c1.035-1.093,0.93-2.164,1.446-3.578
			c0.927-2.534,1.089-4.082,1.979-6.63c0.963-2.755,2.268-4.067,2.817-6.934c0.413-2.16,0.805-3.509,0.235-5.633
			c-0.673-2.511-2.137-3.493-3.89-5.412c-2.426-2.656-4.746-3.124-7.239-5.717c-2.356-2.451-2.109-5.557-5.183-7.01
			c-1.743-0.824-2.944-0.822-4.872-0.837c-1.833-0.015-2.817,0.698-4.651,0.685c-2.559-0.018-3.87-1.062-6.4-1.446
			c-1.741-0.264-3.069,0.582-4.492-0.457c-1.352-0.986-0.802-2.56-1.826-3.882c-0.813-1.05-1.465-1.484-2.52-2.291
			c-1.732-1.324-4.586-0.579-4.872-2.74c-0.123-0.935,0.16-1.493,0.533-2.36c0.96-2.233,4.092-1.587,4.872-3.89
			c0.24-0.712,0.428-1.161,0.305-1.903c-0.269-1.611-2.092-1.471-3.35-2.512c-0.699-0.578-1.18-0.826-1.751-1.529
			c-1.043-1.284-0.397-2.746-1.522-3.958c-0.986-1.063-2.572-2.377-3.37-3.588C143.646,2.608,148.448,6.614,150.187,8.847z"/>
		<linearGradient id="SVGID_7_" gradientUnits="userSpaceOnUse" x1="188.6904" y1="101.9126" x2="251.1543" y2="101.9126">
			<stop  offset="0" style="stop-color:#730100"/>
			<stop  offset="1" style="stop-color:#260100"/>
		</linearGradient>
		<path fill-rule="evenodd" clip-rule="evenodd" fill="url(#SVGID_7_)" d="M204.234,64.754c2.455,1.729,4.376,2.124,6.294,4.435
			c2.441,2.941,4.808,5.643,3.396,9.194c-0.974,2.445-3.197,2.602-5.101,4.418c-2.173,2.073-4.788,2.648-5.271,5.612
			c-0.139,0.854-0.275,1.397,0,2.217c0.696,2.073,1.702-3.018,3.225-4.589c1.861-1.922,2.968-3.639,5.628-3.923
			c1.191-0.127,1.937-0.092,3.054,0.341c3.717,1.44,2.381,6.093,1.876,10.046c-0.366,2.875-2.131,4.11-2.558,6.977
			c-0.481,3.229,0.868,5.083,0.682,8.341c-0.126,2.21-0.921,3.399-0.853,5.612c0.063,2.034,1.089,3.083,1.023,5.117
			c-0.151,4.688-3.352,6.682-6.636,10.03c-1.917,1.955-3.207,2.854-5.441,4.436c-2.288,1.619-3.5,4.678-6.14,3.735
			c-1.543-0.551-1.526-2.137-2.884-3.054c-1.361-0.919-2.332-1.945-3.923-1.535c-0.84,0.217-1.627,0.363-1.876,1.194
			c-0.38,1.27,2.081,0.382,3.24,1.023c1.438,0.796,3.002,1.241,3.07,2.883c0.063,1.516-3.621,2.188-2.388,3.07
			c0.541,0.388,1.275,0.802,1.682,0.284c0.862-1.096,2.563-0.516,4.102-1.137c3.174-1.283,4.402-3.053,7.146-5.101
			c2.772-2.069,3.59-4.841,6.993-5.458c2.17-0.395,3.517,1.368,5.612,0.682c1.274-0.417,1.74-1.172,2.883-1.876
			c1.114-0.686,1.719-1.126,2.9-1.689c4.816-2.294,8.285-1.657,13.611-1.365c4.176,0.229,9.385,5.891,10.559,1.876
			c0.243-0.833,0.35-1.369,0.171-2.217c-0.483-2.296-2.979-2.397-5.271-2.899c-2.678-0.587-4.27,0.421-6.977,0.853
			c-4.774,0.76-7.262,2.558-12.093,2.729c-1.857,0.066-2.918,0.069-4.76-0.17c-1.346-0.175-2.398,0.22-3.411-0.683
			c-1.647-1.466,0.283-3.443,0.682-5.612c0.272-1.476-0.224-2.707,0.853-3.752c1.762-1.71,3.539,1.604,5.954,2.047
			c1.641,0.301,3.196-0.94,4.264,0.341c1.236,1.483-3.292,4.657-1.364,4.76c1.071,0.057,1.674-0.564,2.388-1.365
			c1.247-1.399-1.207-4.82,0.666-4.759c1.603,0.052,0.446,3.461,2.047,3.565c1.919,0.125-0.423-3.1,0.171-4.93
			c1.057-3.261,3.422-4.376,6.465-5.954c2.787-1.445,5.585,0.319,7.829-1.876c0.963-0.942,0.692-2.258,1.876-2.9
			c1.055-0.571,2.112,0.551,3.07-0.17c1.709-1.287-1.885-2.793-2.729-4.759c-1.215-2.825,0.715-9.313-1.877-7.659
			c-2.188,1.396-0.801,4.056-0.512,6.635c0.19,1.699,1.355,2.587,1.023,4.264c-0.428,2.16-2.006,2.966-3.906,4.077
			c-2.112,1.234-3.883,0.384-6.124,1.364c-3.579,1.566-3.806,5.38-7.505,6.636c-2.332,0.792-4.063,1.554-6.294,0.512
			c-2.054-0.959-2.636-2.522-3.565-4.589c-1.312-2.917-0.453-4.981-0.683-8.17c-0.148-2.062-0.302-3.222-0.341-5.288
			c-0.091-4.726,2.1-7.475,1.023-12.077c-0.402-1.721-1.639-2.5-1.535-4.264c0.21-3.582,4.301-3.836,7.658-5.101
			c1.104-0.415,1.974-0.124,2.9-0.853c2.036-1.602-1.254-4.21-0.342-6.636c0.441-1.171,0.682-1.987,1.689-2.729
			c2.7-1.987,3.521,4.039,4.775,7.147c1.142,2.825-1.181,9.038,1.535,7.659c1.358-0.688,0.955-2.35,2.201-3.224
			c2.888-2.024,5.906,5.43,8.512,3.054c2.843-2.593-5.78-2.399-8.341-5.271c-1.702-1.909-1.852-3.572-3.396-5.612
			c-1.842-2.435-2.508-6.402-5.457-5.612c-2.328,0.624-2.164,3.107-3.225,5.271c-0.971,1.98-0.66,3.557-2.047,5.271
			c-1.793,2.216-3.625,3.661-6.465,3.411c-3.981-0.349-2.881-5.785-5.953-8.341C209.188,66.569,207.154,66.151,204.234,64.754z"/>
		<linearGradient id="SVGID_8_" gradientUnits="userSpaceOnUse" x1="94.0044" y1="69.3291" x2="172.7607" y2="69.3291">
			<stop  offset="0" style="stop-color:#730100"/>
			<stop  offset="1" style="stop-color:#260100"/>
		</linearGradient>
		<path fill-rule="evenodd" clip-rule="evenodd" fill="url(#SVGID_8_)" d="M150.203,25.618c-3.046,0.882-5.116,0.588-7.812,2.261
			c-1.613,1.001-2.005,2.284-3.667,3.202c-4.704,2.599-17.592-5.539-13.651-1.884c2.083,1.933,4.487,1.194,6.593,3.102
			c1.182,1.07,2.012,1.698,2.537,3.203c1.02,2.915-1.502,4.599-2.725,7.435c-1.353,3.136-0.559,8.152-3.956,7.812
			c-1.712-0.171-1.97-2.721-3.668-2.449c-2.466,0.395,0.08,3.908,0,6.405c-0.136,4.271-1.298,6.656-0.941,10.914
			c0.396,4.749,1.638,7.297,3.29,11.768c1.686,4.559,4.167,6.559,5.275,11.291c0.473,2.023,0.922,3.203,0.753,5.274
			c-0.274,3.372-1.171,5.644-3.768,7.812c-2.809,2.345-5.473,2.048-9.13,2.16c-2.999,0.092-4.639-1.327-7.623-1.03
			c-1.922,0.191-6.156-0.154-4.798,1.218c0.916,0.925,2.206-0.156,3.29,0.565c2.484,1.653-3.876,2.599-6.305,4.333
			c-1.366,0.976-1.802,2.448-3.479,2.537c-2.307,0.122-3.441-2.032-4.145-4.232c-0.965-3.021,1.514-4.737,2.826-7.623
			c1.189-2.615,2-4.03,3.479-6.493c1.175-1.957,1.907-3.019,3.202-4.898c1.104-1.601,2.172-2.247,2.914-4.044
			c1.786-4.326-3.888-7.348-2.349-11.768c1.046-3.003,3.867-3.405,5.175-6.305c1.269-2.817,0.79-4.768,1.318-7.812
			c0.708-4.08-0.205-6.874,1.884-10.449c1.545-2.644,2.509-5.21,5.551-5.551c1.332-0.149,2.362,1.425,3.391,0.565
			c1.338-1.117-1.437-2.319-2.26-3.855c-0.963-1.796-2.125-2.677-2.261-4.709c-0.19-2.85,1.656-4.223,3.391-6.493
			c3.787-4.957,7.932-5.912,13.739-8.188c3.169-1.242,7.47,0.832,8.377-2.449c0.979-3.538-5.791,0.305-9.318,1.319
			c-5.731,1.648-9.584,2.821-13.363,7.435c-2.309,2.819-1.712,5.661-4.145,8.376c-2.316,2.586-4.481,3.072-7.435,4.898
			c-2.923,1.808-5.495,1.723-7.623,4.421c-2.409,3.055-2.074,5.814-2.349,9.695c-0.116,1.646,0.551,2.676,0,4.232
			c-0.745,2.106-3.768,1.753-4.145,3.956c-0.514,3.01,5.824-0.598,7.059-3.391c1.18-2.671-2.159-4.339-1.884-7.247
			c0.31-3.27,1.536-5.214,3.956-7.435c1.479-1.357,2.635-1.72,4.42-2.638c2.977-1.53,5.796-5.619,8-3.102
			c0.804,0.917,1.101,1.695,1.131,2.913c0.061,2.469-2.862,2.655-4.232,4.71c-2.274,3.411-2.654,5.89-3.579,9.884
			c-0.817,3.528,0.271,5.878-1.131,9.218c-1.492,3.558-5.257,3.91-6.304,7.624c-1.102,3.903,2.197,6.235,1.695,10.26
			c-0.501,4.014-2.252,5.933-4.145,9.507c-1.426,2.691-2.636,3.98-4.044,6.681c-1.429,2.74-2.987,4.164-3.203,7.247
			c-0.227,3.255,3.437,4.89,2.449,8c-0.481,1.515-2.292,1.802-2.261,3.391c0.049,2.406,3.307-1.818,5.275-3.203
			c2.132-1.5,2.966-2.845,5.174-4.232c3.181-1.999,5.286-2.715,8.941-3.58c3.905-0.923,7.464-3.63,10.261-0.753
			c1.683,1.731,1.435,3.539,1.784,5.928c0.637,4.357-5.254,13.345-1.407,11.203c3.266-1.819,1.823-5.555,2.914-9.13
			c0.993-3.256,1.22-5.203,2.448-8.377c1.287-3.321,2.503-4.978,4.045-8.188c1.734-3.613,1.743-6.259,4.332-9.318
			c2.167-2.56,3.764-3.91,6.87-5.174c1.648-0.671,2.988-0.075,4.421-1.13c1.074-0.792,0.799-2.322,2.072-2.726
			c1.339-0.424,2.64,0.031,3.391,1.219c0.956,1.512-1.692,2.553-1.507,4.333c0.181,1.734,0.659,4.545,2.261,3.856
			c1.449-0.625-0.18-2.509,0.188-4.044c0.539-2.253,1.476-3.359,2.914-5.175c1.847-2.329,3.611-2.931,5.84-4.897
			c1.908-1.684,3.934-2.028,4.798-4.421c1.04-2.88-1.681-4.567-1.884-7.623c-0.193-2.908,0.101-4.595,0.753-7.435
			c0.863-3.754,3.154-5.328,3.768-9.13c0.428-2.645,1.805-8.851,0-6.87c-0.885,0.972-0.849,1.875-1.318,3.102
			c-1.159,3.028-1.19,4.939-2.261,8c-1.011,2.889-2.347,4.259-3.014,7.246c-1.148,5.143,3.268,8.647,1.13,13.463
			c-1.792,4.038-4.104,6.502-8.377,7.624c-0.897,0.235-1.46,0.643-2.349,0.376c-1.543-0.462-0.81-2.421-1.695-3.768
			c-1.811-2.753-4.013-3.24-6.681-5.174c-2.763-2.002-5.873-8.021-7.247-4.898c-1.133,2.577,1.709,4.195,3.668,6.216
			c1.805,1.864,4.719,1.21,5.551,3.667c0.495,1.463,0.46,2.554-0.188,3.956c-1.228,2.655-4.586,0.973-7.059,2.537
			c-4.126,2.61-3.51,12.976-7.435,10.072c-1.754-1.297-1.735-2.957-2.537-4.985c-1.526-3.864-0.979-6.441-2.072-10.449
			c-1.156-4.247-3.334-6.257-3.768-10.638c-0.423-4.276-1.01-7.431,1.508-10.913c0.852-1.179,1.777-1.464,2.637-2.638
			c1.672-2.285,1.285-4.246,2.349-6.87c1.209-2.982,1.821-4.74,3.579-7.435c1.173-1.797,1.878-2.812,3.391-4.333
			c1.548-1.556,2.604-2.249,4.421-3.479C146.346,27.479,147.818,26.793,150.203,25.618z"/>
		<path fill-rule="evenodd" clip-rule="evenodd" fill="#260100" d="M148.942,95.765c3.498,0.692,5.488,2.547,8.968,1.774
			c3.151-0.7,5.609-1.642,6.871-4.613c0.764-1.798-1.603-4.665,0.322-5c1.308-0.228,2.18,0.662,2.903,1.774
			c1.417,2.175-0.968,4.169-2.741,6.064c-2.443,2.611-6.266,0.501-8.581,3.226c-1.057,1.243-1.431,2.157-1.936,3.709
			c-0.694,2.137,0.249,3.618-0.483,5.742c-1.08,3.13,2.162-6.296-0.323-8.484c-1.299-1.144-3.145-0.075-4.193-1.452
			C149.074,97.62,149.32,96.708,148.942,95.765z"/>
		<path fill-rule="evenodd" clip-rule="evenodd" fill="#260100" d="M160.007,111.022c3.435,1.359,5.546,1.75,8.807,3.484
			c4.802,2.554,5.755,7.312,11.064,8.484c3.711,0.819,5.98-0.081,9.71-0.807c5.713-1.112,8.787-2.605,13.968-5.258
			c2.036-1.042,3.15-4.105,5.097-2.903c2.082,1.285-2.863,2.57-4.936,3.871c-1.563,0.981-3.408,0.523-4.193,2.194
			c-1.297,2.76,4.171,2.661,7.193,3.064c1.872,0.25,3.09,0.549,4.839-0.161c1.798-0.73,1.952-2.439,3.646-3.387
			c2.516-1.409-3.246,3.201-4.774,5.645c-0.705,1.126-0.331,3.348-1.613,3c-1.204-0.326,0.103-2.061-0.483-3.161
			c-1.373-2.581-4.934,0.187-7.355-1.452c-1.179-0.797-1.324-1.91-2.58-2.58c-3.052-1.628-5.105,1.84-8.484,2.58
			c-4.586,1.005-7.479,2.668-11.968,1.291c-4.986-1.531-5.532-6.093-9.774-9.129C165.17,113.651,163.19,112.822,160.007,111.022z"/>
		<path fill-rule="evenodd" clip-rule="evenodd" fill="#260100" d="M191.685,87.604c-0.44,1.321-0.219,2.333-1.129,3.387
			c-0.469,0.542-1.224,0.449-1.452,1.129c-0.401,1.198,1.973,0.155,3.227,0.322c2.519,0.336,4.096,0.192,6.387,1.291
			c1.847,0.885,3.137,1.407,4.193,3.161c1.514,2.512,0.752,4.73-0.161,7.516c-0.632,1.928-3.801,2.896-2.581,4.516
			c1.312,1.742,2.795-2.136,3.871-4.032c1.678-2.955-0.27-5.521,1.064-8.645c1.874-4.386,13.575-8.388,8.807-8.484
			c-3.043-0.062-4.644,1.5-7.032,3.387c-1.382,1.092-1.45,2.807-3.161,3.226c-1.918,0.469-2.79-1.355-4.678-1.936
			c-2.299-0.708-4.455,0.66-6.064-1.129C191.95,90.174,192.188,88.861,191.685,87.604z"/>
		<linearGradient id="SVGID_9_" gradientUnits="userSpaceOnUse" x1="213.9209" y1="74.5513" x2="269.5107" y2="74.5513">
			<stop  offset="0" style="stop-color:#730100"/>
			<stop  offset="1" style="stop-color:#260100"/>
		</linearGradient>
		<path fill-rule="evenodd" clip-rule="evenodd" fill="url(#SVGID_9_)" d="M213.921,48.582c1.136,0.994,1.938,1.396,2.913,2.549
			c1.209,1.429,0.918,2.991,2.367,4.176c2.312,1.89,4.668,0.227,7.637,0.546c2.132,0.229,3.381,0.167,5.45,0.729
			c8.379,2.271,14.512,7.703,15.09,16.364c0.181,2.711-1.005,4.191-0.911,6.907c0.083,2.381,3.299,5.109,1.093,6.009
			c-0.988,0.404-1.832,0.394-2.731-0.182c-0.549-0.351-0.577-0.86-1.08-1.274c-2.793-2.3-3.582,4.782-6.92,6.179
			c-2.193,0.918-3.654,1.5-5.997,1.093c-1.347-0.234-2.002-1.797-3.265-1.275c-1.588,0.657-0.254,2.678-0.547,4.371
			c-0.233,1.354-1.338,2.216-0.729,3.447c0.933,1.884,2.049-2.667,3.813-3.812c2.871-1.864,5.672-0.143,8.546-2.003
			c2.364-1.53,2.093-4.477,4.734-5.451c2.063-0.76,3.466,0.55,5.633,0.182c1.543-0.262,2.278-0.963,3.821-1.227
			c8.458-1.447,17.169,16.854,16.65,14.38c-0.312-1.492-0.2-2.427-0.632-3.911c-1.882-6.462-6.403-9.794-12.933-11.428
			c-2.004-0.501-3.518,0.55-5.269-0.546c-2.984-1.869-3.746-6.235-1.456-8.911c1.051-1.228,2.243-1.17,3.629-2.003
			c1.232-0.741,1.659-1.936,3.096-2.003c1.333-0.062,1.835,1.894,3.096,1.457c0.606-0.21-1.881-1.941-3.46-2.355
			c-2.429-0.636-5.202,4.122-6.179,1.809c-4.371-10.355-7.64-14.998-16.729-17.093c-2.357-0.543-3.764-0.394-6.179-0.534
			c-2.407-0.139-4.278,1.301-6.179-0.182c-1.328-1.036-0.826-2.621-2.004-3.824C216.958,49.405,215.625,49.504,213.921,48.582z"/>
		<linearGradient id="SVGID_10_" gradientUnits="userSpaceOnUse" x1="20.8848" y1="95.8169" x2="112.2588" y2="95.8169">
			<stop  offset="0" style="stop-color:#730100"/>
			<stop  offset="0.6563" style="stop-color:#260100"/>
			<stop  offset="1" style="stop-color:#730100"/>
		</linearGradient>
		<path fill-rule="evenodd" clip-rule="evenodd" fill="url(#SVGID_10_)" d="M31.323,99.348c1.815-1.942,4.345-5.809,4.656-4.98
			c0.442,1.176-1.346,4.311-1.767,7.165c-0.508,3.442-1.016,5.313,0.664,7.917c2.289,3.547,5.381,6.088,10.072,7.471
			c3.031,0.893,4.957,0.946,8.086,0.503c1.696-0.24,2.628-1.07,4.256-1.087c1.817-0.019,12.317,6.155,19.497,5.954
			c1.457-0.041,2.394-0.771,3.337-1.946c1.611-2.009,1.969-4.822,0.107-6.602c-1.936-1.852-4.507-1.424-7.204-2.757
			c-4.839-2.392-7.608-4.097-11.204-8.123c-2.066-2.315-5.47-5.332-4.533-6.541c0.354-0.457,0.333-0.992,0.873-1.197
			c1.447-0.549,4.552,7.5,9.432,10.29c4.212,2.407,5.658,4.274,9.935,5.076c1.583,0.297,2.348,0.746,4.115,0.332
			c0.825-0.193,1.382-0.621,1.638-1.429c1.458-4.603,2.353-11.667,3.04-15.98c1.169-6.652,3.263-10.025,3.908-18.101
			c0.354-4.414-0.558-10.244-2.007-11.555c-1.353-1.223-2.818-0.786-4.633-0.618c-5.905,0.548-8.597,13.462-9.382,11.969
			c-0.835-1.59-0.624-2.827-0.309-4.595c0.482-2.703,4.584-3.384,3.706-5.985c-0.532-1.574-1.627-2.144-3.089-2.934
			c-1.336-0.721-2.784-0.515-3.768-0.978c-1.169-0.55,0.923-2.701,0.563-4.389c-0.463-2.173-2.589-2.485-3.451-4.533
			c-1.412-3.353-0.688-8.233,0.209-9.327c0.758-0.924,1.802-1.272,2.934-0.889c0.777,0.264-1.788,5.408-0.463,8.418
			c0.939,2.135,2.636,2.549,4.04,4.412c1.131,1.499,0.974,3.109,2.596,4.055c1.797,1.047,3.491,0.956,5.333-0.011
			c3.136-1.646,0.375-5.619,1.616-8.937c1.967-5.256,5.814-6.657,8.642-11.505c1.597-2.737,1.438-3.719,3.625-7.271
			c1.356-2.201,6.74-6.239,7.042-4.991c0.432,1.779-0.99,1.399-1.746,2.721c-0.771,1.348-0.619,2.27-1.72,3.714
			c-0.825,1.169-0.913,0.737-2.132,2.318c-0.605,0.788-1.072,2.279-2.043,3.164c-1.22,1.111-2.995,1.669-4.127,3.232
			c-1.779,2.459-3.03,3.871-3.753,6.819c-0.957,3.905,0.819,6.239,1.14,10.247c0.169,2.117-0.725,3.599,0.344,5.433
			c0.859,1.477,2.434,1.255,3.421,2.737c1.05,1.577,1.377,5.97-0.155,9.227c-1.891,4.021-0.48,6.689-2.007,10.617
			c-1.671,4.3-2.294,7.593-3.051,12.587c-0.836,5.517-2.449,8.964-0.772,14.285c0.727,2.306,1.109,3.776,2.742,5.559
			c1.061,1.158,5.432,2.299,9.019,1.983c2.72-0.239,4.578-0.405,6.651-2.181c2.654-2.273,1.72-8.715,3.094-8.411
			c1.932,0.427,3.376,1.397,3.833,3.322c0.572,2.411-1.845,3.367-3.524,5.287c-1.614,1.846-2.281,3.876-1.544,6.294
			c0.318,1.045,1.79,1.416,1.39,2.433c-0.153,0.39-2.229-1.722-3.86-2.433c-1.794-0.783-2.954-0.816-4.87-1.216
			c-5.712-1.192-10.061-4.598-14.902-1.341c-3.733,2.512-4.434,8.13-5.235,10.282c-0.607,1.629,0.347,3.659-0.556,4.422
			c-0.764,0.646-1.709-0.589-2.566,0c-2.22,1.527-2.215,3.722-3.382,6.227c-1.307,2.805-2.06,4.413-2.845,7.406
			c-0.531,2.027-0.907,3.191-0.971,5.287c-0.13,4.267,3.696,10.389,3.043,10.514c-3.693,0.703-7.682-10.929-5.17-16.031
			c1.497-3.041,4.608-5.922,4.209-10.211c-0.199-2.143-1.1-4.535-1.773-5.223c-0.461-0.471-2.699-0.403-4.436-0.389
			c-1.836,0.016-2.761,0.655-4.68,0.515c-1.209-0.089-3.002-0.873-2.428-1.941c0.413-0.771,1.227-0.654,2.147-0.642
			c3.996,0.057,6.756,1.752,10.537,0.141c2.813-1.199,4.408-2.246,5.952-5.1c0.446-0.826,1.356-1.507,1.207-2.083
			c-0.19-0.731-3.244-0.841-5.287-1.483c-3.082-0.969-5.007-1.229-7.777-2.854c-2.152-1.263-2.878-1.816-5.568-1.731
			c-7.402,0.234-10.921-0.945-11.482-0.562c-1.9,1.299-2.085,5.238-2.161,8.754c-0.077,3.523-0.262,6.012,1.787,8.858
			c1.685,2.339,0.926,4.742,0.574,4.038c-0.562-1.123-1.006-0.687-1.59-1.198c-2.337-2.048-3.71-3.636-4.188-6.78
			c-0.44-2.899,1.003-4.588,0.617-7.496c-0.212-1.605-0.327-3.837-1.024-4.024c-0.659-0.177-2.875,2.292-4.318,4.117
			c-1.451,1.834-2.275,2.828-4.221,3.986c-2.362,1.406-4.051,1.719-6.795,1.872c-2.129,0.119-4.679,0.047-5.437-0.595
			c-1.216-1.027,4.766-0.121,7.599-1.09c1.924-0.656,3.004-1.143,4.68-2.292c1.541-1.059,2.329-1.805,3.551-3.219
			c1.565-1.812,3.461-2.829,3.243-5.213c-0.087-0.946-0.22-1.547-0.796-2.302c-1.356-1.778-2.34-1.965-4.454-3.257
			c-2.255-1.377-3.736-2.022-5.428-4.052c-0.702-0.842-1.264-3.509-0.937-4.959C28.909,101.95,29.627,100.55,31.323,99.348z"/>
	</g>
	<path fill-rule="evenodd" clip-rule="evenodd" fill="#260100" d="M103.764,179.313c2.149-1.179,2.947-1.595,4.512-3.021
		c2.203-2.01,2.822-3.72,4.443-6.223c1.403-2.165,2.459-3.278,3.379-5.689c0.587-1.54,0.185-2.696,1.066-4.088
		c2.052-3.241,5.954-0.942,9.6-2.135c3.746-1.226,6.119-1.685,9.244-4.088c1.711-1.315,1.8-3.474,3.912-3.912
		c2.219-0.461,3.295,1.319,5.332,2.313c1.841,0.897,2.586,2.692,4.623,2.488c0.961-0.097,1.993,0.022,2.311-0.889
		c0.389-1.114-1.261-1.415-2.311-1.955c-1.318-0.679-2.295-0.355-3.734-0.711c-2.128-0.526-3.429-0.69-5.332-1.779
		c-1.288-0.736-1.815-3.173-3.023-2.311c-0.768,0.548-0.352,1.438-0.711,2.311c-0.725,1.761-1.328,2.735-2.666,4.09
		c-2.222,2.251-4.282,2.574-7.289,3.555c-3.859,1.259-7.073-1.027-10.311,1.422c-1.135,0.858-1.622,1.54-2.49,2.668
		c-2.216,2.878-1.9,5.396-3.732,8.533c-1.602,2.742-2.951,3.997-4.801,6.578C104.992,177.576,104.942,178.134,103.764,179.313z"/>
	<path fill-rule="evenodd" clip-rule="evenodd" fill="#260100" d="M138.739,32.455c2.005,2.274,3.205,3.498,5.142,5.83
		c1.703,2.051,2.605,3.256,4.228,5.371c2.095,2.73,2.969,4.517,5.259,7.086c0.776,0.871,0.896,2.066,2.058,2.172
		c0.815,0.074,1.134-0.666,1.941-0.8c2.391-0.397,4.063,1.204,5.259,3.313c0.486,0.858,0.401,1.498,0.8,2.4
		c0.83,1.879,0.22-3.605-1.144-5.142c-1.508-1.7-3.91-0.083-5.602-1.601c-0.637-0.571-1.064-0.915-1.369-1.715
		c-0.947-2.485,7.135-2.46,5.256-4.342c-1.702-1.706-3.447,2.435-5.827,2.058c-2.212-0.351-3.166-1.673-4.688-3.315
		c-1.856-2.003-3.604-3.455-3.313-6.171c0.174-1.625,0.651-2.636,1.826-3.772c1.25-1.209,3.55-0.071,4.116-1.715
		c0.63-1.83-3.29,0.049-4.802,1.258c-1.266,1.012-0.79,2.694-2.17,3.544C142.963,38.606,141.413,34.194,138.739,32.455z"/>
	<path fill-rule="evenodd" clip-rule="evenodd" fill="none" stroke="#1A171B" stroke-miterlimit="3.8637" d="M153.938,58.513"/>
	<path fill-rule="evenodd" clip-rule="evenodd" fill="#260100" d="M132.223,64.341c1.605-2.986,1.332-5.722,4.115-7.657
		c1.91-1.328,3.397-1.5,5.714-1.712c1.065-0.098,1.696-0.22,2.744,0c2.384,0.501,7.177,3.467,4.799,3.999
		c-1.985,0.444-2.582-2.086-4.57-2.515c-1.222-0.263-1.957-0.227-3.201-0.114c-1.994,0.181-3.202,0.446-4.913,1.486
		C134.235,59.452,134.051,61.8,132.223,64.341z"/>
	<path fill-rule="evenodd" clip-rule="evenodd" fill="#EBB599" d="M205.141,37.448c-1.161-0.931-1.565-2.858-2.977-2.386
		c-1.294,0.433-0.838,1.966-1.256,3.265c-1.16,3.606,0.088,5.854-0.507,9.595c-0.437,2.743-0.912,4.264-1.131,7.033
		c-0.138,1.744-1.484,2.383-0.125,3.483c1.677,1.358,1.659-1.082,3.27-2.516c3.089-2.751,5.774-3.809,7.372-7.624
		c0.9-2.148,2.313-3.859,1.131-5.865c-0.732-1.241-1.918-1.201-3.015-2.135C206.725,39.295,206.169,38.511,205.141,37.448z"/>
	<path fill-rule="evenodd" clip-rule="evenodd" fill="none" stroke="#1A171B" stroke-width="1.0001" stroke-miterlimit="3.8637" d="
		M25.005,141.077c4.083,2.433,5.717,6.225,10.47,6.236c3.881,0.009,5.77-2.059,9.059-4.12c3.749-2.35,4.271-6.449,8.592-7.408
		c4.974-1.102,7.462,2.798,12.232,4.587"/>
	<path fill-rule="evenodd" clip-rule="evenodd" fill="none" stroke="#1A171B" stroke-width="1.0001" stroke-miterlimit="3.8637" d="
		M11.371,145.038c1.097-6.315-1.948-11.901,2.812-16.194c2.614-2.356,5.096-2.082,8.354-3.414"/>
	<path fill-rule="evenodd" clip-rule="evenodd" fill="none" stroke="#1A171B" stroke-miterlimit="3.8637" d="M46.666,41.327
		l3.207,3.873c-2.412,1.195-3.7,2.155-5.532,4.127c-1.63,1.753-2.077,3.115-3.405,5.106"/>
	<path fill-rule="evenodd" clip-rule="evenodd" fill="none" stroke="#1A171B" stroke-miterlimit="3.8637" d="M75.205,35.029
		c-2.668,1.178-4.843,1.746-6.524,1.702l-6.865-0.284c-3.998,0.585-5.309,2.208-8,4.596c-1.548,1.373-1.971,2.742-3.531,3.959"/>
	<path fill-rule="evenodd" clip-rule="evenodd" fill="none" stroke="#1A171B" stroke-miterlimit="3.8637" d="M18.639,93.015
		c-0.963-3.432-0.89-5.769,0.283-9.135c1.256-3.603,1.759-4.879,6.014-7.716l5.73-4.539c-0.663-2.677-1.702-4.107-1.702-6.865
		s0.414-4.426,1.702-6.865"/>
	<path fill-rule="evenodd" clip-rule="evenodd" fill="none" stroke="#1A171B" stroke-miterlimit="3.8637" d="M76.341,27.313
		c1.948,2,3.558,2.87,6.298,3.404c2.528,0.494,4.015-0.346,6.581-0.567"/>
	<path fill-rule="evenodd" clip-rule="evenodd" fill="none" stroke="#1A171B" stroke-miterlimit="3.8637" d="M10.539,108.922
		c-3.404,4.312-3.068,4.671-4.156,8.66c-1.702,6.241,3.179,9.526,5.211,15.617"/>
	<path fill-rule="evenodd" clip-rule="evenodd" fill="none" stroke="#1A171B" stroke-miterlimit="3.8637" d="M6.95,100.164
		c2.566,4.802,2.837,9.418,6.581,12.312"/>
	<path fill-rule="evenodd" clip-rule="evenodd" fill="none" stroke="#1A171B" stroke-miterlimit="3.8637" d="M150.161,2.41
		c-9.052,4.136-13.352,9.253-23.211,10.605c-7.211,0.989-11.54-0.084-18.609-1.418c-6.015-1.135-11.026,0.069-10.271,3.121
		c1.703,6.865,7.684,8.549,12.596,14.014"/>
	<path fill-rule="evenodd" clip-rule="evenodd" fill="none" stroke="#1A171B" stroke-miterlimit="3.8637" d="M159.098,2.694
		c-2.278,0.993-3.512,2.154-4.641,4.368c-1.308,2.563-0.316,4.49-0.518,7.361"/>
	<path fill-rule="evenodd" clip-rule="evenodd" fill="none" stroke="#1A171B" stroke-miterlimit="3.8637" d="M174.177,21.458
		c-0.579-4.214-0.179-6.758-1.485-10.806c-0.984-3.047-2.153-4.521-3.529-7.413"/>
	<path fill-rule="evenodd" clip-rule="evenodd" fill="none" stroke="#1A171B" stroke-miterlimit="3.8637" d="M108.354,127.014
		c-7.568,3.524-12.715,4.042-19.404,9.036c-4.717,3.521-7.6,5.649-10.671,10.671c-3.116,5.094-5.881,8.74-4.658,14.586
		c0.49,2.347,1.479,3.446,2.424,5.649"/>
	<path fill-rule="evenodd" clip-rule="evenodd" fill="none" stroke="#1A171B" stroke-miterlimit="3.8637" d="M207.299,17.662
		c-2.832,2.569-4.916,3.705-8.609,4.694c-2.399,0.643-3.862,0.419-6.332,0.688"/>
	<path fill-rule="evenodd" clip-rule="evenodd" fill="none" stroke="#1A171B" stroke-miterlimit="3.8637" d="M205.768,156.362
		c8.241-8.521,5.219-13.632,3.146-15.476c-3.679-2.24-8.386-1.496-13.595-0.49c-6.709,1.297-10.84,3.17-15.5,8.167
		c-3.793,4.067-2.271,9.133-6.576,12.651c-7.172,5.862-22.951,3.935-23.738-0.786"/>
	<path fill-rule="evenodd" clip-rule="evenodd" fill="none" stroke="#1A171B" stroke-miterlimit="3.8637" d="M269.631,107.078
		c-0.65,4.481-2.762,6.563-3.667,10.99c-0.425,2.077-0.48,3.28-0.787,5.377"/>
	<path fill-rule="evenodd" clip-rule="evenodd" fill="none" stroke="#1A171B" stroke-miterlimit="3.8637" d="M18.595,153.593
		c2.055-1.146,3.527-1.486,5.876-1.359c2.579,0.14,4.126,0.802,6.189,2.354c1.037,0.781,1.341,1.543,2.354,2.354
		c4.8,3.842,9.515,1.436,15.638,1.992c4.664,0.424,7.322,1.204,11.984,0.756c3.184-0.306,4.899-1.014,8.031-1.662"/>
	<path fill-rule="evenodd" clip-rule="evenodd" fill="none" stroke="#1A171B" stroke-miterlimit="3.8637" d="M30.1,71.817
		c3.351-0.564,5.195-1.537,8.592-1.447c2.813,0.074,4.033,0.775,7.242,1.392"/>
	<path fill-rule="evenodd" clip-rule="evenodd" fill="none" stroke="#1A171B" stroke-miterlimit="3.8637" d="M252.122,73.331
		c2.448,1.568,3.894,2.357,6.278,4.021c1.264,0.883,1.947,1.422,3.193,2.331"/>
	<path fill-rule="evenodd" clip-rule="evenodd" fill="none" stroke="#1A171B" stroke-miterlimit="3.8637" d="M158.5,79.081
		c2.203,0,3.509-0.519,5.65,0c2.849,0.689,3.455,3.989,6.386,3.963c2.987-0.026,3.476-3.556,6.386-4.233
		c2.535-0.59,4.059,0.328,6.654,0.538"/>
	<path fill-rule="evenodd" clip-rule="evenodd" fill="none" stroke="#1A171B" stroke-miterlimit="3.8637" d="M117.423,80.084
		c0.21,2.805-0.111,4.456,0.538,7.193c0.686,2.882,3.136,4.039,2.961,6.996c-0.075,1.269-0.493,1.925-0.808,3.156"/>
	<path fill-rule="evenodd" clip-rule="evenodd" fill="none" stroke="#1A171B" stroke-miterlimit="3.8637" d="M255.307,94.542
		c1.574,3.826,3.811,5.68,4.037,9.811c0.145,2.653,0.061,4.326-1.077,6.728c-0.7,1.479-1.895,1.876-2.422,3.425
		c-0.6,1.761,0.577,3.001,0,4.771c-0.914,2.806-3.402,3.119-5.578,5.112"/>
	<path fill-rule="evenodd" clip-rule="evenodd" fill="none" stroke="#1A171B" stroke-miterlimit="3.8637" d="M250.267,104.622
		c0.105,2.204,0.94,3.549,0.27,5.651c-0.437,1.366-0.929,2.087-1.884,3.156c-1.984,2.223-4.028,2.527-6.924,3.229
		c-1.948,0.472-3.119,0.328-5.112,0.538"/>
	<path fill-rule="evenodd" clip-rule="evenodd" fill="none" stroke="#1A171B" stroke-miterlimit="3.8637" d="M248.652,113.429
		c1.364,0,2.189-0.384,3.498,0c1.43,0.42,1.926,1.313,3.156,2.153"/>
	<path fill-rule="evenodd" clip-rule="evenodd" fill="none" stroke="#1A171B" stroke-miterlimit="3.8637" d="M53.692,51.044
		c0.314,2.595,0.227,4.105,0.808,6.655c0.687,3.016,4.835,5.232,2.69,7.461c-1.014,1.053-2.061,1.081-3.498,1.345
		c-2.149,0.396-3.662-1.589-5.578-0.538c-2.304,1.265-1.313,3.896-2.153,6.386"/>
	<path fill-rule="evenodd" clip-rule="evenodd" fill="none" stroke="#1A171B" stroke-miterlimit="3.8637" d="M119.662,190.449
		c-6.845-3.961-4.657-6.087-3.874-10.311c0.848-4.563,3.882-7.176,8.33-8.495c4.711-1.397,7.489,4.521,12.204,3.136
		c3.915-1.148,4.779-4.229,7.835-6.932"/>
</g>
</svg>
