<?xml version="1.0" encoding="iso-8859-1"?>
<!DOCTYPE svg PUBLIC "-//W3C//DTD SVG 20000303 Stylable//EN"
"http://www.w3.org/TR/2000/03/WD-SVG-20000303/DTD/svg-20000303-stylable.dtd">

<svg width="1.1122in" height="1.1122in" viewBox="0 0 640 640">

<path style="fill:#8fb735" d="M640,580 l0,6 -1,6 -2,6 -2,5 -2,6 -3,5 -4,4 -3,5 -5,3 -4,4 -5,3 -6,2 -5,2 -6,2 -6,1 -6,0 -520,0 -6,0 -6,-1 -6,-2 -5,-2 -5,-2 -5,-3 -5,-4 -4,-3 -4,-5 -4,-4 -3,-5 -2,-6 -2,-5 -2,-6 -1,-6 0,-6 0,-520 0,-6 1,-6 2,-6 2,-5 2,-5 3,-5 4,-5 4,-4 4,-4 5,-4 5,-3 5,-2 5,-2 6,-2 6,-1 6,0 520,0 6,0 6,1 6,2 5,2 6,2 5,3 4,4 5,4 3,4 4,5 3,5 2,5 2,5 2,6 1,6 0,6 0,520z" />
<ellipse style="fill:#fff" cx="320" cy="275" rx="299" ry="185" />
<ellipse style="fill:#fff" cx="197" cy="432" rx="60" ry="59" />
<ellipse style="fill:#fff" cx="141" cy="522" rx="35" ry="35" />
<ellipse style="fill:#fff" cx="87" cy="573" rx="25" ry="24" />
<path style="fill:#8fb735;fill-rule:evenodd" d="M468,273 l85,0 0,25 -85,0 0,-25z M468,311 l85,0 0,25 -85,0 0,-25z " />
<rect style="fill:#8fb735" x="103" y="292" width="343" height="27" />
<path style="fill:#8fb735" d="M248,338 l69,0 0,16 -38,39 40,0 0,19 -74,0 0,-18 36,-37 -33,0 0,-19z" />
<path style="fill:#8fb735" d="M259,186 l22,0 -1,15 -1,6 -2,7 5,-3 7,-3 14,-7 7,21 -16,4 -5,0 -8,1 9,8 11,11 -18,14 -8,-14 -5,-11 -5,11 -8,14 -19,-14 12,-11 4,-4 5,-4 -12,-2 -16,-3 7,-21 14,6 11,7 -2,-13 -2,-15z" />
<path style="fill:#8fb735" d="M113,185 l34,0 12,21 14,-21 31,0 -25,36 27,39 -33,0 -14,-24 -16,24 -31,0 27,-39 -26,-36z" />
<path style="fill:#8fb735" d="M341,170 l30,0 16,50 14,-50 28,0 -29,80 -6,12 -2,4 -3,3 -4,3 -5,2 -6,1 -7,0 -8,0 -12,-1 -2,-20 3,1 4,0 7,1 5,-1 3,-2 2,-1 1,-2 1,-2 1,-3 -31,-75z" />

</svg>
