<?xml version="1.0" encoding="UTF-8" standalone="no"?>
<!-- Created with Inkscape (http://www.inkscape.org/) -->

<svg
   xmlns:dc="http://purl.org/dc/elements/1.1/"
   xmlns:cc="http://creativecommons.org/ns#"
   xmlns:rdf="http://www.w3.org/1999/02/22-rdf-syntax-ns#"
   xmlns:svg="http://www.w3.org/2000/svg"
   xmlns="http://www.w3.org/2000/svg"
   xmlns:sodipodi="http://sodipodi.sourceforge.net/DTD/sodipodi-0.dtd"
   xmlns:inkscape="http://www.inkscape.org/namespaces/inkscape"
   width="83.833748"
   height="102.86875"
   id="svg4138"
   version="1.1"
   inkscape:version="0.47 r22583"
   sodipodi:docname="faceless_family.svg">
  <defs
     id="defs4140">
    <inkscape:perspective
       sodipodi:type="inkscape:persp3d"
       inkscape:vp_x="0 : 526.18109 : 1"
       inkscape:vp_y="0 : 1000 : 0"
       inkscape:vp_z="744.09448 : 526.18109 : 1"
       inkscape:persp3d-origin="372.04724 : 350.78739 : 1"
       id="perspective4146" />
    <inkscape:perspective
       id="perspective4114"
       inkscape:persp3d-origin="0.5 : 0.33333333 : 1"
       inkscape:vp_z="1 : 0.5 : 1"
       inkscape:vp_y="0 : 1000 : 0"
       inkscape:vp_x="0 : 0.5 : 1"
       sodipodi:type="inkscape:persp3d" />
    <inkscape:perspective
       id="perspective4203"
       inkscape:persp3d-origin="0.5 : 0.33333333 : 1"
       inkscape:vp_z="1 : 0.5 : 1"
       inkscape:vp_y="0 : 1000 : 0"
       inkscape:vp_x="0 : 0.5 : 1"
       sodipodi:type="inkscape:persp3d" />
  </defs>
  <sodipodi:namedview
     id="base"
     pagecolor="#ffffff"
     bordercolor="#666666"
     borderopacity="1.0"
     inkscape:pageopacity="0.0"
     inkscape:pageshadow="2"
     inkscape:zoom="5.6"
     inkscape:cx="19.05973"
     inkscape:cy="51.058929"
     inkscape:document-units="px"
     inkscape:current-layer="layer1"
     showgrid="false"
     inkscape:window-width="1440"
     inkscape:window-height="853"
     inkscape:window-x="0"
     inkscape:window-y="24"
     inkscape:window-maximized="1" />
  <metadata
     id="metadata4143">
    <rdf:RDF>
      <cc:Work
         rdf:about="">
        <dc:format>image/svg+xml</dc:format>
        <dc:type
           rdf:resource="http://purl.org/dc/dcmitype/StillImage" />
        <dc:title />
      </cc:Work>
    </rdf:RDF>
  </metadata>
  <g
     inkscape:label="Layer 1"
     inkscape:groupmode="layer"
     id="layer1"
     transform="translate(-355.94027,-734.14209)">
    <path
       d="m 366.47027,761.27709 -4.455,-5.265 4.455,-13.365 7.29,-2.025 5.66875,1.62 4.455,3.645 2.43,5.265 -0.405,4.86 -1.215,4.05 4.05,2.025 1.215,6.885 2.43,4.05 3.645,2.43 10.935,-15.39 -3.645,-1.62 -2.025,-3.645 4.05,-4.455 1.215,-5.67 5.67,-6.885 6.885,-3.645 8.91,0.405 4.86,3.24 4.86,5.67 -0.405,6.885 -1.215,5.67 3.645,4.86 -6.48,3.24 0.405,14.175 0.81,8.91 0.81,10.93375 -2.025,13.77 0,9.315 -7.29,2.025 -0.81,10.125 -8.91,1.62 -6.075,0.405 -11.745,-0.405 -8.1,0 -7.29,1.62 -8.90875,0.405 -6.48,-5.67 -9.315,-1.62 -2.025,-17.82 2.025,-9.315 -2.43,-11.34 2.025,-11.33875 2.835,-11.745 5.67,-6.885"
       style="fill:#000000;fill-opacity:1;fill-rule:nonzero;stroke:none"
       id="path3477" />
    <path
       d="m 377.81777,831.77334 -5.1175,-1.895 2.47875,-12.97625 1.9825,-1.23875 c 0.65625,0 0.65625,0 0.65625,0 l 3.23625,0.5675 0,1.91 -1.91,14.37625 -1.32625,-0.74375"
       style="fill:#949494;fill-opacity:1;fill-rule:nonzero;stroke:none"
       id="path3479" />
    <path
       d="m 383.06652,830.51959 0.65625,-14.3025 1.9825,-0.58375 c 0.65625,-0.74375 0.65625,-0.74375 0.65625,-0.74375 l 4.46125,1.3275 0,14.3025 -7.75625,0.74375 0,-0.74375"
       style="fill:#949494;fill-opacity:1;fill-rule:nonzero;stroke:none"
       id="path3481" />
    <path
       d="m 411.64277,830.51959 -2.63875,0 5.86125,-18.85125 2.65375,1.32625 -2.65375,18.26875 c -0.65625,0 -0.65625,0 -0.65625,0 l -2.56625,-0.74375"
       style="fill:#cbcbcb;fill-opacity:1;fill-rule:nonzero;stroke:none"
       id="path3483" />
    <path
       d="m 417.51902,830.51959 1.23875,-8.515 4.62125,-1.23875 0,9.75375 -5.86,0"
       style="fill:#d6d6d6;fill-opacity:1;fill-rule:nonzero;stroke:none"
       id="path3485" />
    <path
       d="m 392.22277,830.51959 0.5825,-7.77125 7.17375,0 0.58375,7.77125 -8.34,0"
       style="fill:#d6d6d6;fill-opacity:1;fill-rule:nonzero;stroke:none"
       id="path3487" />
    <path
       d="m 402.48652,829.83459 c 0,-5.205 -1.16625,-10.99375 1.4,-16.855 l 5.7875,0.65625 c -1.32625,5.87625 -2.565,9.75375 -3.30875,14.95875 l -2.47875,1.24 -1.4,0"
       style="fill:#cbcbcb;fill-opacity:1;fill-rule:nonzero;stroke:none"
       id="path3489" />
    <path
       d="m 368.85152,828.62459 -5.86125,-1.3275 -1.415,-6.53125 0,-18.25375 4.6375,-2.47875 c -0.74375,4.46125 -0.74375,8.34 -1.3275,12.97625 0.58375,1.23875 0.58375,1.23875 0.58375,1.23875 l 4.62125,5.2775 0.67125,5.1325 0,4.62125 -1.91,-0.655"
       style="fill:#d2d2d2;fill-opacity:1;fill-rule:nonzero;stroke:none"
       id="path3491" />
    <path
       d="m 419.50152,820.09459 0.495,-6.44375 1.98375,4.46125 c -0.58375,1.4 -0.58375,1.4 -0.58375,1.4 l -1.895,0.5825"
       style="fill:#969696;fill-opacity:1;fill-rule:nonzero;stroke:none"
       id="path3493" />
    <path
       d="m 396.68402,819.51209 1.4,-1.98375 0,-15.62875 7.66875,-11.06625 c 3.23625,0.65625 5.21875,1.3125 8.44125,0.65625 1.3125,1.23875 1.3125,1.23875 1.3125,1.23875 0.58375,1.415 0.58375,1.415 0.58375,1.415 l 8.51375,2.47875 c 1.4,5.86 1.9825,9.82625 0,15.03125 l -5.86125,0 -1.91,-2.63875 -5.86125,1.9825 1.80875,-5.205 8.60125,0.65625 -1.39875,-1.56 -7.3625,-0.83125 -2.975,2.72625 -5.2925,-2.81375 0.0875,-3.965 c -0.5825,-0.74375 -0.5825,-0.74375 -0.5825,-0.74375 -1.4,1.32625 -1.4,1.32625 -1.4,1.32625 l -1.16625,4.54875 3.805,0.74375 2.65375,3.135 -3.8925,0.74375 c -0.74375,0.5825 -0.74375,0.5825 -0.74375,0.5825 -2.56625,2.63875 -3.135,4.535 -3.135,7.1875 l -1.895,1.98375 -1.4,0"
       style="fill:#969696;fill-opacity:1;fill-rule:nonzero;stroke:none"
       id="path3495" />
    <path
       d="m 424.58902,818.88459 0,-3.965 c 0.65625,0 0.65625,0 0.65625,0 l 3.2375,-3.2225 -0.58375,-12.4075 2.56625,-1.895 0.65625,20.74625 -6.5325,1.4 0,-0.65625"
       style="fill:#dbdbdb;fill-opacity:1;fill-rule:nonzero;stroke:none"
       id="path3497" />
    <path
       d="m 370.06152,816.88709 -2.63875,-2.63875 1.39875,-12.32 3.2225,-5.2925 2.56625,0 c 0.5825,0 0.5825,0 0.5825,0 l 1.98375,-5.77375 2.63875,-1.32625 5.875,3.96625 4.55,0.655 c 1.9825,-1.39875 1.31125,1.98375 4.53375,3.2375 l 1.32625,13.63125 -0.655,5.205 -3.2225,-1.9825 -1.9825,-1.9825 -5.2925,0 c 0,-0.58375 0,-0.58375 0,-0.58375 l 3.3825,-5.205 5.13125,2.56625 -0.67,-1.91 -1.24,-2.63875 -3.22125,0 c -0.74375,0.65625 -0.74375,0.65625 -0.74375,0.65625 l -4.54875,3.8925 c -1.24,0 -1.24,0 -1.24,0 l -5.205,-1.23875 -2.63875,1.23875 0,-4.54875 c -0.65625,0 -0.65625,0 -0.65625,0 l -1.25375,3.87875 0.67125,3.30875 4.46125,-1.895 4.62125,3.2225 -4.62125,0 -2.56625,1.23875 -2.56625,3.31 -1.9825,-0.67125"
       style="fill:#d5d5d5;fill-opacity:1;fill-rule:nonzero;stroke:none"
       id="path3499" />
    <path
       d="m 359.65152,801.22834 c -1.3275,-9.75375 0,-19.47875 1.895,-29.9025 l 4.6225,-6.605 c 4.54875,-0.5825 9.01,-1.91 13.64625,-1.91 1.23875,-0.56875 1.23875,-0.56875 1.23875,-0.56875 l 5.2925,1.24 1.24,9.17 -3.15,1.24 c -2.63875,0.74375 -3.965,3.965 -5.2925,5.86 l 0,6.5325 -1.9825,2.55125 c -1.23875,0 -1.23875,0 -1.23875,0 l -5.205,-3.2075 -2.63875,0.65625 -1.91,1.96875 2.6525,0 c 0.58375,0 0.58375,0 0.58375,0 l 5.205,1.9825 -1.32625,4.47625 -3.2225,-1.98375 -9.0975,8.5 -1.3125,0"
       style="fill:#d2d2d2;fill-opacity:1;fill-rule:nonzero;stroke:none"
       id="path3501" />
    <path
       d="m 426.57277,795.36709 -6.605,-1.23875 c -1.23875,-0.65625 -1.23875,-0.65625 -1.23875,-0.65625 l 1.23875,-3.2225 c 0.74375,0 0.74375,0 0.74375,0 l 3.2225,-0.7425 4.54875,1.9825 -1.24,-1.9825 1.98375,-4.535 -2.65375,-3.2225 c 0,-0.67 0,-0.67 0,-0.67 l -1.98375,-7.84375 -3.22125,-4.54875 -2.63875,-2.56625 -7.77125,-1.4 c -0.74375,0.74375 -0.74375,0.74375 -0.74375,0.74375 -1.23875,0.65625 -1.23875,0.65625 -1.23875,0.65625 l -2.65375,4.63625 -4.37375,7.1 -0.65625,6.5325 1.15125,1.91 1.4,1.9675 -3.87875,4.46125 0,-2.47875 -1.88,-3.3825 0.56875,-7.77 13.54375,-21.49125 4.6225,2.65375 13.06375,3.2225 c 1.23875,9.17 3.8925,18.2675 1.9825,27.33625 l -3.96625,5.2925 -1.32625,-0.74375"
       style="fill:#dbdbdb;fill-opacity:1;fill-rule:nonzero;stroke:none"
       id="path3503" />
    <path
       d="m 394.20527,794.74084 -1.4,-3.2225 4.54875,-1.9825 -1.90875,5.205 -1.24,0"
       style="fill:#d2d2d2;fill-opacity:1;fill-rule:nonzero;stroke:none"
       id="path3505" />
    <path
       d="m 386.94527,791.48959 0,0 -5.87625,-3.86375 -0.58375,-5.205 c 1.98375,-3.31 4.4625,-5.87625 7.115,-7.2025 l 3.2225,-0.56875 5.2925,3.2225 0.56875,6.53125 -3.2225,3.86375 -5.1175,3.2225 -1.39875,0"
       style="fill:#f9f9f9;fill-opacity:1;fill-rule:nonzero;stroke:none"
       id="path3507" />
    <path
       d="m 410.24277,789.50709 -5.13125,-3.2075 -0.65625,-2.56625 2.63875,-8.515 1.91,-1.32625 8.515,1.32625 c 1.9825,3.87875 0.5675,7.1875 1.23875,10.41 l -1.91,3.2075 -5.205,1.41375 -1.4,-0.7425"
       style="fill:#f9f9f9;fill-opacity:1;fill-rule:nonzero;stroke:none"
       id="path3509" />
    <path
       d="m 421.39652,786.31334 -0.67,-9.17 -5.86125,-5.1175 -7.115,0 2.47875,-4.63625 4.63625,0 6.53125,4.63625 c 1.9825,3.22125 1.24,7.1 1.9825,10.41 l 3.2225,4.46125 -5.205,0 0,-0.58375"
       style="fill:#eeeeee;fill-opacity:1;fill-rule:nonzero;stroke:none"
       id="path3511" />
    <path
       d="m 429.24027,760.28834 0,0 c 1.24,-5.2925 1.91,-9.75375 0,-14.3025 l -3.22125,-3.2225 -10.4975,0.58375 c -0.65625,0.65625 -0.65625,0.65625 -0.65625,0.65625 -3.89375,3.8775 -2.65375,7.115 -3.2225,10.9925 l -7.1875,1.98375 c 0,-1.24 0,-1.24 0,-1.24 l 3.8775,-3.2225 1.3275,-6.53125 c 3.965,-7.85875 10.3225,-8.515 16.35875,-8.515 l 7.11375,4.55 c 1.24,5.205 0,9.75375 -1.23875,14.95875 l 3.135,1.9825 -4.54875,1.895 -1.24,-0.56875"
       style="fill:#c5c5c5;fill-opacity:1;fill-rule:nonzero;stroke:none"
       id="path3513" />
    <path
       d="m 369.43402,759.60334 -3.965,-3.87875 c 0,-0.7425 0,-0.7425 0,-0.7425 l 3.965,-10.99375 7.77125,-0.67 4.63625,3.30875 1.24,2.47875 c 0,0.74375 0,0.74375 0,0.74375 0.65625,1.23875 0.65625,1.23875 0.65625,1.23875 l -3.2225,5.2925 c -2.65375,1.24 -5.87625,4.4625 -9.17125,3.89375 l -1.91,-0.67125"
       style="fill:#f9f9f9;fill-opacity:1;fill-rule:nonzero;stroke:none"
       id="path3515" />
    <path
       d="m 417.51902,757.62084 -2.65375,-0.65625 -0.65625,-7.115 3.31,-4.62125 5.86,-0.58375 3.89375,2.56625 c 0,0.65625 0,0.65625 0,0.65625 0.65625,1.23875 0.65625,1.23875 0.65625,1.23875 l 0.5825,3.3825 -3.2225,5.1325 -6.53125,0.74375 -1.23875,-0.74375"
       style="fill:#f9f9f9;fill-opacity:1;fill-rule:nonzero;stroke:none"
       id="path3517" />
  </g>
</svg>
